<?xml version="1.0" encoding="UTF-8"?>
<svg xmlns="http://www.w3.org/2000/svg" xmlns:xlink="http://www.w3.org/1999/xlink" width="1587pt" height="396pt" viewBox="0 0 1587 396">
<defs>
<g>
<g id="glyph-0-0">
<path d="M 4.609375 -3.214844 L 3.421875 -3 C 3.378906 -3.238281 3.289062 -3.417969 3.148438 -3.535156 C 3.003906 -3.65625 2.820312 -3.71875 2.59375 -3.71875 C 2.292969 -3.71875 2.054688 -3.613281 1.875 -3.40625 C 1.695312 -3.199219 1.605469 -2.851562 1.605469 -2.363281 C 1.605469 -1.820312 1.699219 -1.441406 1.878906 -1.214844 C 2.0625 -0.992188 2.304688 -0.882812 2.613281 -0.882812 C 2.839844 -0.882812 3.03125 -0.945312 3.175781 -1.078125 C 3.320312 -1.207031 3.425781 -1.429688 3.484375 -1.75 L 4.671875 -1.546875 C 4.546875 -1.003906 4.3125 -0.589844 3.960938 -0.3125 C 3.613281 -0.0351562 3.144531 0.101562 2.554688 0.101562 C 1.890625 0.101562 1.355469 -0.109375 0.960938 -0.527344 C 0.5625 -0.949219 0.367188 -1.53125 0.367188 -2.277344 C 0.367188 -3.03125 0.5625 -3.617188 0.960938 -4.035156 C 1.359375 -4.457031 1.898438 -4.667969 2.578125 -4.667969 C 3.132812 -4.667969 3.574219 -4.546875 3.902344 -4.308594 C 4.230469 -4.070312 4.46875 -3.703125 4.609375 -3.214844 Z M 4.609375 -3.214844 "/>
</g>
<g id="glyph-0-1">
<path d="M 0.632812 0 L 0.632812 -6.300781 L 1.839844 -6.300781 L 1.839844 0 Z M 0.632812 0 "/>
</g>
<g id="glyph-0-2">
<path d="M 1.535156 -3.171875 L 0.4375 -3.367188 C 0.5625 -3.808594 0.773438 -4.136719 1.074219 -4.347656 C 1.375 -4.558594 1.820312 -4.667969 2.414062 -4.667969 C 2.953125 -4.667969 3.355469 -4.601562 3.617188 -4.476562 C 3.882812 -4.347656 4.066406 -4.1875 4.175781 -3.988281 C 4.28125 -3.792969 4.335938 -3.433594 4.335938 -2.910156 L 4.324219 -1.5 C 4.324219 -1.097656 4.34375 -0.804688 4.378906 -0.613281 C 4.417969 -0.421875 4.492188 -0.21875 4.597656 0 L 3.402344 0 C 3.371094 -0.0820312 3.332031 -0.199219 3.289062 -0.355469 C 3.265625 -0.429688 3.253906 -0.476562 3.246094 -0.5 C 3.039062 -0.296875 2.816406 -0.148438 2.582031 -0.046875 C 2.347656 0.0546875 2.097656 0.101562 1.832031 0.101562 C 1.359375 0.101562 0.992188 -0.0234375 0.71875 -0.28125 C 0.449219 -0.535156 0.3125 -0.855469 0.3125 -1.246094 C 0.3125 -1.503906 0.375 -1.734375 0.5 -1.9375 C 0.621094 -2.136719 0.792969 -2.292969 1.015625 -2.398438 C 1.238281 -2.507812 1.558594 -2.601562 1.976562 -2.679688 C 2.539062 -2.789062 2.933594 -2.886719 3.148438 -2.976562 L 3.148438 -3.097656 C 3.148438 -3.332031 3.09375 -3.496094 2.976562 -3.59375 C 2.863281 -3.691406 2.648438 -3.742188 2.328125 -3.742188 C 2.113281 -3.742188 1.945312 -3.699219 1.828125 -3.617188 C 1.707031 -3.53125 1.609375 -3.382812 1.535156 -3.171875 M 3.148438 -2.191406 C 2.996094 -2.140625 2.75 -2.078125 2.414062 -2.007812 C 2.078125 -1.933594 1.859375 -1.863281 1.757812 -1.796875 C 1.601562 -1.683594 1.519531 -1.542969 1.519531 -1.371094 C 1.519531 -1.203125 1.585938 -1.054688 1.710938 -0.933594 C 1.835938 -0.808594 1.996094 -0.746094 2.191406 -0.746094 C 2.410156 -0.746094 2.617188 -0.820312 2.816406 -0.960938 C 2.960938 -1.070312 3.054688 -1.203125 3.101562 -1.363281 C 3.132812 -1.464844 3.148438 -1.660156 3.148438 -1.949219 Z M 3.148438 -2.191406 "/>
</g>
<g id="glyph-0-3">
<path d="M 0.207031 -1.300781 L 1.417969 -1.488281 C 1.46875 -1.25 1.574219 -1.074219 1.730469 -0.953125 C 1.890625 -0.828125 2.109375 -0.769531 2.394531 -0.769531 C 2.707031 -0.769531 2.941406 -0.828125 3.097656 -0.941406 C 3.203125 -1.019531 3.257812 -1.128906 3.257812 -1.261719 C 3.257812 -1.355469 3.226562 -1.429688 3.171875 -1.492188 C 3.109375 -1.546875 2.976562 -1.601562 2.765625 -1.648438 C 1.792969 -1.863281 1.175781 -2.0625 0.914062 -2.238281 C 0.554688 -2.484375 0.375 -2.828125 0.375 -3.265625 C 0.375 -3.660156 0.53125 -3.992188 0.84375 -4.261719 C 1.15625 -4.53125 1.636719 -4.667969 2.292969 -4.667969 C 2.917969 -4.667969 3.382812 -4.566406 3.6875 -4.359375 C 3.992188 -4.15625 4.199219 -3.855469 4.3125 -3.460938 L 3.175781 -3.25 C 3.125 -3.425781 3.035156 -3.5625 2.898438 -3.65625 C 2.761719 -3.75 2.566406 -3.796875 2.316406 -3.796875 C 2 -3.796875 1.769531 -3.753906 1.632812 -3.664062 C 1.542969 -3.601562 1.496094 -3.519531 1.496094 -3.421875 C 1.496094 -3.335938 1.535156 -3.261719 1.617188 -3.203125 C 1.722656 -3.121094 2.101562 -3.007812 2.742188 -2.863281 C 3.386719 -2.714844 3.835938 -2.535156 4.089844 -2.324219 C 4.34375 -2.109375 4.46875 -1.808594 4.46875 -1.425781 C 4.46875 -1.007812 4.292969 -0.648438 3.945312 -0.347656 C 3.59375 -0.046875 3.078125 0.101562 2.394531 0.101562 C 1.773438 0.101562 1.28125 -0.0234375 0.917969 -0.273438 C 0.554688 -0.527344 0.316406 -0.871094 0.207031 -1.300781 Z M 0.207031 -1.300781 "/>
</g>
<g id="glyph-0-4">
<path d="M 3.464844 0 L 2.257812 0 L 2.257812 -4.550781 C 1.816406 -4.136719 1.292969 -3.832031 0.695312 -3.636719 L 0.695312 -4.730469 C 1.011719 -4.835938 1.351562 -5.03125 1.722656 -5.316406 C 2.09375 -5.605469 2.347656 -5.941406 2.484375 -6.324219 L 3.464844 -6.324219 Z M 3.464844 0 "/>
</g>
<g id="glyph-0-5">
<path d="M 4.453125 -1.121094 L 4.453125 0 L 0.21875 0 C 0.265625 -0.425781 0.402344 -0.824219 0.632812 -1.207031 C 0.859375 -1.585938 1.3125 -2.089844 1.988281 -2.714844 C 2.535156 -3.222656 2.867188 -3.566406 2.992188 -3.746094 C 3.15625 -3.996094 3.238281 -4.242188 3.238281 -4.484375 C 3.238281 -4.753906 3.167969 -4.960938 3.023438 -5.105469 C 2.878906 -5.25 2.679688 -5.324219 2.421875 -5.324219 C 2.171875 -5.324219 1.972656 -5.246094 1.820312 -5.097656 C 1.671875 -4.945312 1.585938 -4.691406 1.5625 -4.339844 L 0.359375 -4.460938 C 0.433594 -5.125 0.65625 -5.601562 1.035156 -5.890625 C 1.414062 -6.179688 1.886719 -6.324219 2.453125 -6.324219 C 3.074219 -6.324219 3.5625 -6.15625 3.917969 -5.824219 C 4.273438 -5.488281 4.453125 -5.070312 4.453125 -4.570312 C 4.453125 -4.289062 4.402344 -4.019531 4.300781 -3.761719 C 4.199219 -3.503906 4.035156 -3.238281 3.816406 -2.957031 C 3.667969 -2.769531 3.40625 -2.503906 3.023438 -2.152344 C 2.644531 -1.804688 2.402344 -1.570312 2.300781 -1.457031 C 2.199219 -1.34375 2.117188 -1.230469 2.054688 -1.121094 Z M 4.453125 -1.121094 "/>
</g>
<g id="glyph-0-6">
<path d="M 0.332031 -1.671875 L 1.5 -1.8125 C 1.535156 -1.515625 1.636719 -1.289062 1.800781 -1.128906 C 1.964844 -0.972656 2.160156 -0.894531 2.394531 -0.894531 C 2.640625 -0.894531 2.851562 -0.988281 3.023438 -1.175781 C 3.191406 -1.367188 3.277344 -1.621094 3.277344 -1.941406 C 3.277344 -2.246094 3.195312 -2.488281 3.035156 -2.664062 C 2.871094 -2.839844 2.671875 -2.929688 2.4375 -2.929688 C 2.28125 -2.929688 2.097656 -2.902344 1.882812 -2.839844 L 2.015625 -3.824219 C 2.34375 -3.816406 2.589844 -3.886719 2.761719 -4.035156 C 2.933594 -4.1875 3.019531 -4.386719 3.019531 -4.636719 C 3.019531 -4.847656 2.957031 -5.015625 2.832031 -5.144531 C 2.707031 -5.269531 2.539062 -5.332031 2.328125 -5.332031 C 2.121094 -5.332031 1.945312 -5.261719 1.800781 -5.117188 C 1.65625 -4.972656 1.566406 -4.765625 1.535156 -4.492188 L 0.421875 -4.679688 C 0.5 -5.058594 0.613281 -5.363281 0.769531 -5.59375 C 0.925781 -5.820312 1.144531 -6 1.425781 -6.128906 C 1.703125 -6.261719 2.015625 -6.324219 2.363281 -6.324219 C 2.957031 -6.324219 3.433594 -6.136719 3.789062 -5.757812 C 4.085938 -5.449219 4.234375 -5.097656 4.234375 -4.710938 C 4.234375 -4.15625 3.929688 -3.714844 3.324219 -3.386719 C 3.6875 -3.308594 3.976562 -3.136719 4.191406 -2.867188 C 4.40625 -2.597656 4.515625 -2.273438 4.515625 -1.890625 C 4.515625 -1.335938 4.3125 -0.867188 3.910156 -0.476562 C 3.507812 -0.0859375 3.003906 0.109375 2.402344 0.109375 C 1.832031 0.109375 1.359375 -0.0546875 0.984375 -0.382812 C 0.609375 -0.710938 0.390625 -1.140625 0.332031 -1.671875 Z M 0.332031 -1.671875 "/>
</g>
<g id="glyph-1-0">
<path d="M 1.265625 -2.378906 L 1.90625 -1.917969 C 1.769531 -1.707031 1.628906 -1.53125 1.492188 -1.394531 C 1.265625 -1.167969 1.054688 -1.03125 0.859375 -0.976562 C 0.664062 -0.925781 0.484375 -0.929688 0.316406 -0.996094 C 0.148438 -1.0625 -0.121094 -1.28125 -0.492188 -1.652344 L -2.601562 -3.761719 L -3.058594 -3.308594 L -3.542969 -3.792969 L -3.085938 -4.246094 L -3.996094 -5.15625 L -3.75 -6.144531 L -2.46875 -4.863281 L -1.84375 -5.488281 L -1.359375 -5.007812 L -1.984375 -4.382812 L 0.160156 -2.238281 C 0.335938 -2.058594 0.460938 -1.957031 0.535156 -1.929688 C 0.605469 -1.898438 0.683594 -1.894531 0.761719 -1.914062 C 0.839844 -1.933594 0.925781 -1.988281 1.019531 -2.082031 C 1.085938 -2.152344 1.171875 -2.25 1.265625 -2.378906 Z M 1.265625 -2.378906 "/>
</g>
<g id="glyph-1-1">
<path d="M 0.460938 -0.460938 L -3.207031 -4.125 L -2.648438 -4.683594 L -2.09375 -4.128906 C -2.210938 -4.53125 -2.25 -4.835938 -2.210938 -5.039062 C -2.171875 -5.242188 -2.082031 -5.417969 -1.9375 -5.5625 C -1.726562 -5.773438 -1.449219 -5.917969 -1.097656 -6 L -0.734375 -5.210938 C -0.976562 -5.148438 -1.175781 -5.039062 -1.324219 -4.890625 C -1.460938 -4.753906 -1.542969 -4.589844 -1.570312 -4.402344 C -1.597656 -4.210938 -1.558594 -4.019531 -1.460938 -3.828125 C -1.308594 -3.539062 -1.101562 -3.261719 -0.839844 -3 L 1.082031 -1.082031 Z M 0.460938 -0.460938 "/>
</g>
<g id="glyph-1-2">
<path d="M -0.878906 -1.3125 L -0.359375 -2.023438 C -0.078125 -1.8125 0.207031 -1.71875 0.496094 -1.746094 C 0.785156 -1.773438 1.070312 -1.925781 1.351562 -2.210938 C 1.640625 -2.496094 1.792969 -2.765625 1.8125 -3.019531 C 1.835938 -3.273438 1.769531 -3.480469 1.613281 -3.636719 C 1.472656 -3.777344 1.300781 -3.824219 1.097656 -3.785156 C 0.957031 -3.753906 0.675781 -3.613281 0.253906 -3.359375 C -0.320312 -3.019531 -0.734375 -2.800781 -0.996094 -2.710938 C -1.253906 -2.617188 -1.503906 -2.601562 -1.742188 -2.660156 C -1.984375 -2.714844 -2.191406 -2.835938 -2.371094 -3.015625 C -2.535156 -3.175781 -2.648438 -3.367188 -2.714844 -3.582031 C -2.777344 -3.792969 -2.792969 -4.011719 -2.753906 -4.234375 C -2.730469 -4.402344 -2.660156 -4.59375 -2.542969 -4.808594 C -2.421875 -5.027344 -2.269531 -5.230469 -2.078125 -5.421875 C -1.789062 -5.707031 -1.496094 -5.917969 -1.195312 -6.054688 C -0.894531 -6.1875 -0.625 -6.238281 -0.378906 -6.199219 C -0.132812 -6.160156 0.128906 -6.042969 0.402344 -5.84375 L -0.121094 -5.15625 C -0.335938 -5.316406 -0.566406 -5.382812 -0.804688 -5.355469 C -1.039062 -5.332031 -1.28125 -5.195312 -1.523438 -4.953125 C -1.808594 -4.667969 -1.964844 -4.417969 -1.992188 -4.203125 C -2.019531 -3.984375 -1.96875 -3.8125 -1.84375 -3.6875 C -1.761719 -3.605469 -1.664062 -3.558594 -1.550781 -3.546875 C -1.433594 -3.53125 -1.296875 -3.554688 -1.144531 -3.617188 C -1.0625 -3.65625 -0.824219 -3.789062 -0.4375 -4.007812 C 0.117188 -4.332031 0.519531 -4.542969 0.769531 -4.640625 C 1.019531 -4.738281 1.265625 -4.765625 1.503906 -4.722656 C 1.746094 -4.679688 1.972656 -4.550781 2.183594 -4.339844 C 2.394531 -4.132812 2.527344 -3.878906 2.589844 -3.574219 C 2.652344 -3.269531 2.617188 -2.953125 2.492188 -2.625 C 2.363281 -2.296875 2.15625 -1.988281 1.867188 -1.703125 C 1.390625 -1.226562 0.929688 -0.960938 0.480469 -0.910156 C 0.0351562 -0.859375 -0.417969 -0.992188 -0.878906 -1.3125 Z M -0.878906 -1.3125 "/>
</g>
<g id="glyph-1-3">
<path d="M 2.871094 -2.871094 L 2.332031 -3.40625 C 2.460938 -2.707031 2.277344 -2.113281 1.789062 -1.621094 C 1.570312 -1.40625 1.328125 -1.246094 1.058594 -1.140625 C 0.789062 -1.035156 0.542969 -1 0.328125 -1.035156 C 0.113281 -1.070312 -0.105469 -1.160156 -0.324219 -1.304688 C -0.472656 -1.402344 -0.679688 -1.582031 -0.941406 -1.847656 L -3.214844 -4.117188 L -2.59375 -4.742188 L -0.558594 -2.707031 C -0.234375 -2.382812 -0.00390625 -2.175781 0.132812 -2.089844 C 0.335938 -1.964844 0.546875 -1.917969 0.769531 -1.953125 C 0.988281 -1.984375 1.191406 -2.097656 1.378906 -2.28125 C 1.5625 -2.46875 1.691406 -2.691406 1.757812 -2.949219 C 1.828125 -3.210938 1.8125 -3.453125 1.714844 -3.6875 C 1.621094 -3.921875 1.414062 -4.191406 1.101562 -4.503906 L -0.863281 -6.46875 L -0.242188 -7.089844 L 3.425781 -3.425781 Z M 2.871094 -2.871094 "/>
</g>
<g id="glyph-1-4">
<path d="M 0.464844 -0.464844 L -3.199219 -4.132812 L -2.640625 -4.691406 L -2.121094 -4.171875 C -2.253906 -4.84375 -2.066406 -5.433594 -1.558594 -5.941406 C -1.335938 -6.164062 -1.09375 -6.328125 -0.828125 -6.433594 C -0.5625 -6.539062 -0.320312 -6.574219 -0.101562 -6.535156 C 0.121094 -6.5 0.339844 -6.410156 0.550781 -6.269531 C 0.691406 -6.179688 0.902344 -5.988281 1.191406 -5.699219 L 3.445312 -3.445312 L 2.824219 -2.824219 L 0.59375 -5.054688 C 0.339844 -5.308594 0.128906 -5.472656 -0.046875 -5.550781 C -0.21875 -5.628906 -0.40625 -5.640625 -0.605469 -5.59375 C -0.800781 -5.546875 -0.984375 -5.4375 -1.148438 -5.273438 C -1.414062 -5.007812 -1.558594 -4.695312 -1.582031 -4.335938 C -1.605469 -3.972656 -1.382812 -3.558594 -0.914062 -3.089844 L 1.085938 -1.085938 Z M 0.464844 -0.464844 "/>
</g>
<g id="glyph-1-5">
<path d="M 1.871094 0.9375 L -3.199219 -4.132812 L -2.632812 -4.699219 L -2.15625 -4.222656 C -2.210938 -4.542969 -2.199219 -4.832031 -2.125 -5.09375 C -2.050781 -5.355469 -1.894531 -5.605469 -1.652344 -5.84375 C -1.339844 -6.160156 -0.984375 -6.355469 -0.582031 -6.433594 C -0.183594 -6.511719 0.226562 -6.464844 0.640625 -6.292969 C 1.054688 -6.121094 1.4375 -5.859375 1.789062 -5.511719 C 2.164062 -5.136719 2.433594 -4.730469 2.601562 -4.296875 C 2.765625 -3.859375 2.800781 -3.433594 2.703125 -3.019531 C 2.605469 -2.601562 2.417969 -2.25 2.132812 -1.96875 C 1.925781 -1.761719 1.695312 -1.617188 1.445312 -1.542969 C 1.191406 -1.464844 0.945312 -1.441406 0.707031 -1.46875 L 2.492188 0.316406 L 1.871094 0.9375 M -0.785156 -2.839844 C -0.3125 -2.371094 0.132812 -2.117188 0.550781 -2.082031 C 0.964844 -2.046875 1.308594 -2.164062 1.582031 -2.4375 C 1.859375 -2.714844 1.976562 -3.066406 1.941406 -3.496094 C 1.902344 -3.929688 1.640625 -4.386719 1.148438 -4.878906 C 0.683594 -5.347656 0.238281 -5.601562 -0.1875 -5.640625 C -0.613281 -5.679688 -0.957031 -5.566406 -1.226562 -5.300781 C -1.492188 -5.035156 -1.601562 -4.675781 -1.558594 -4.226562 C -1.511719 -3.773438 -1.253906 -3.3125 -0.785156 -2.839844 Z M -0.785156 -2.839844 "/>
</g>
<g id="glyph-1-6">
<path d="M 0.453125 -0.453125 L -4.609375 -5.515625 L -3.988281 -6.136719 L 1.074219 -1.074219 Z M 0.453125 -0.453125 "/>
</g>
<g id="glyph-1-7">
<path d="M 0.464844 -0.464844 L -4.59375 -5.527344 L -3.972656 -6.148438 L -2.15625 -4.332031 C -2.203125 -4.960938 -2.007812 -5.492188 -1.5625 -5.933594 C -1.292969 -6.207031 -1.003906 -6.390625 -0.695312 -6.480469 C -0.386719 -6.574219 -0.0976562 -6.570312 0.179688 -6.46875 C 0.453125 -6.367188 0.769531 -6.136719 1.128906 -5.777344 L 3.453125 -3.453125 L 2.832031 -2.832031 L 0.507812 -5.15625 C 0.195312 -5.464844 -0.0976562 -5.625 -0.371094 -5.632812 C -0.648438 -5.636719 -0.910156 -5.519531 -1.15625 -5.273438 C -1.339844 -5.089844 -1.464844 -4.867188 -1.53125 -4.609375 C -1.601562 -4.351562 -1.585938 -4.105469 -1.492188 -3.875 C -1.398438 -3.640625 -1.207031 -3.382812 -0.917969 -3.09375 L 1.085938 -1.085938 Z M 0.464844 -0.464844 "/>
</g>
<g id="glyph-1-8">
<path d="M 0.613281 -0.613281 L -2.570312 -3.796875 L -3.117188 -3.25 L -3.601562 -3.730469 L -3.050781 -4.28125 L -3.441406 -4.671875 C -3.6875 -4.917969 -3.851562 -5.121094 -3.925781 -5.285156 C -4.027344 -5.507812 -4.050781 -5.742188 -4 -5.992188 C -3.949219 -6.246094 -3.789062 -6.507812 -3.519531 -6.777344 C -3.34375 -6.953125 -3.128906 -7.125 -2.875 -7.296875 L -2.425781 -6.660156 C -2.578125 -6.554688 -2.710938 -6.445312 -2.828125 -6.328125 C -3.015625 -6.140625 -3.109375 -5.964844 -3.105469 -5.808594 C -3.105469 -5.648438 -2.992188 -5.457031 -2.773438 -5.238281 L -2.433594 -4.898438 L -1.71875 -5.613281 L -1.234375 -5.128906 L -1.949219 -4.414062 L 1.234375 -1.234375 Z M 0.613281 -0.613281 "/>
</g>
<g id="glyph-1-9">
<path d="M 2.40625 -3.3125 C 2.371094 -2.886719 2.289062 -2.527344 2.15625 -2.230469 C 2.023438 -1.9375 1.835938 -1.671875 1.589844 -1.425781 C 1.1875 -1.023438 0.78125 -0.8125 0.367188 -0.792969 C -0.046875 -0.773438 -0.40625 -0.917969 -0.710938 -1.222656 C -0.890625 -1.402344 -1.015625 -1.605469 -1.082031 -1.835938 C -1.148438 -2.066406 -1.160156 -2.292969 -1.117188 -2.515625 C -1.074219 -2.738281 -0.992188 -2.953125 -0.875 -3.167969 C -0.785156 -3.320312 -0.628906 -3.535156 -0.414062 -3.8125 C 0.0273438 -4.375 0.324219 -4.8125 0.480469 -5.132812 C 0.398438 -5.222656 0.34375 -5.277344 0.320312 -5.300781 C 0.0664062 -5.554688 -0.167969 -5.671875 -0.390625 -5.660156 C -0.6875 -5.640625 -0.996094 -5.476562 -1.308594 -5.160156 C -1.601562 -4.871094 -1.765625 -4.601562 -1.800781 -4.359375 C -1.839844 -4.117188 -1.761719 -3.835938 -1.566406 -3.507812 L -2.257812 -2.984375 C -2.464844 -3.296875 -2.582031 -3.597656 -2.617188 -3.886719 C -2.648438 -4.171875 -2.589844 -4.480469 -2.4375 -4.804688 C -2.28125 -5.128906 -2.046875 -5.449219 -1.734375 -5.765625 C -1.421875 -6.078125 -1.128906 -6.296875 -0.859375 -6.417969 C -0.589844 -6.539062 -0.355469 -6.589844 -0.148438 -6.570312 C 0.0546875 -6.550781 0.257812 -6.476562 0.464844 -6.34375 C 0.59375 -6.257812 0.792969 -6.078125 1.070312 -5.800781 L 1.898438 -4.972656 C 2.476562 -4.394531 2.855469 -4.042969 3.035156 -3.914062 C 3.214844 -3.789062 3.414062 -3.695312 3.632812 -3.632812 L 2.984375 -2.984375 C 2.789062 -3.046875 2.597656 -3.15625 2.40625 -3.3125 M 0.964844 -4.648438 C 0.832031 -4.328125 0.574219 -3.914062 0.1875 -3.398438 C -0.03125 -3.105469 -0.171875 -2.882812 -0.230469 -2.730469 C -0.292969 -2.578125 -0.304688 -2.429688 -0.273438 -2.285156 C -0.242188 -2.136719 -0.171875 -2.011719 -0.0664062 -1.902344 C 0.101562 -1.738281 0.300781 -1.660156 0.535156 -1.675781 C 0.773438 -1.691406 1.011719 -1.820312 1.253906 -2.0625 C 1.492188 -2.300781 1.652344 -2.566406 1.734375 -2.855469 C 1.816406 -3.148438 1.808594 -3.429688 1.714844 -3.699219 C 1.640625 -3.90625 1.46875 -4.144531 1.195312 -4.417969 Z M 0.964844 -4.648438 "/>
</g>
<g id="glyph-1-10">
<path d="M -3.878906 -4.816406 L -4.59375 -5.53125 L -3.96875 -6.152344 L -3.257812 -5.4375 L -3.878906 -4.816406 M 0.46875 -0.46875 L -3.195312 -4.136719 L -2.574219 -4.757812 L 1.089844 -1.089844 Z M 0.46875 -0.46875 "/>
</g>
<g id="glyph-1-11">
<path d="M 0.65625 -0.046875 L 1.351562 -0.5625 C 1.5625 -0.402344 1.769531 -0.335938 1.96875 -0.367188 C 2.238281 -0.40625 2.503906 -0.558594 2.773438 -0.824219 C 3.058594 -1.113281 3.226562 -1.390625 3.265625 -1.664062 C 3.308594 -1.9375 3.253906 -2.203125 3.101562 -2.464844 C 3.007812 -2.625 2.753906 -2.90625 2.347656 -3.308594 C 2.394531 -2.714844 2.21875 -2.21875 1.8125 -1.8125 C 1.308594 -1.308594 0.738281 -1.101562 0.0976562 -1.1875 C -0.542969 -1.273438 -1.117188 -1.574219 -1.625 -2.082031 C -1.976562 -2.433594 -2.234375 -2.816406 -2.40625 -3.242188 C -2.574219 -3.664062 -2.617188 -4.074219 -2.539062 -4.476562 C -2.460938 -4.878906 -2.257812 -5.242188 -1.933594 -5.566406 C -1.5 -6 -0.96875 -6.179688 -0.339844 -6.109375 L -0.78125 -6.554688 L -0.207031 -7.125 L 2.960938 -3.957031 C 3.535156 -3.386719 3.878906 -2.921875 4 -2.570312 C 4.125 -2.214844 4.128906 -1.84375 4.015625 -1.453125 C 3.898438 -1.0625 3.660156 -0.683594 3.289062 -0.3125 C 2.851562 0.125 2.402344 0.378906 1.933594 0.449219 C 1.46875 0.523438 1.042969 0.355469 0.65625 -0.046875 M -1.03125 -2.765625 C -0.550781 -2.285156 -0.105469 -2.027344 0.308594 -2 C 0.71875 -1.96875 1.070312 -2.097656 1.355469 -2.386719 C 1.640625 -2.671875 1.773438 -3.019531 1.746094 -3.433594 C 1.71875 -3.847656 1.472656 -4.289062 1 -4.757812 C 0.550781 -5.207031 0.113281 -5.445312 -0.3125 -5.472656 C -0.738281 -5.503906 -1.09375 -5.378906 -1.375 -5.097656 C -1.648438 -4.820312 -1.773438 -4.472656 -1.742188 -4.054688 C -1.710938 -3.636719 -1.472656 -3.207031 -1.03125 -2.765625 Z M -1.03125 -2.765625 "/>
</g>
<g id="glyph-1-12">
<path d="M 1.484375 -1.484375 L -3.578125 -3.757812 L -2.921875 -4.414062 L 0.0625 -3.003906 C 0.382812 -2.851562 0.707031 -2.683594 1.035156 -2.5 C 0.898438 -2.75 0.742188 -3.058594 0.570312 -3.429688 L -0.851562 -6.480469 L -0.214844 -7.121094 L 2.066406 -2.066406 Z M 1.484375 -1.484375 "/>
</g>
<g id="glyph-1-13">
<path d="M 1.796875 -4.15625 L 2.515625 -4.71875 C 2.789062 -4.242188 2.894531 -3.765625 2.828125 -3.285156 C 2.761719 -2.800781 2.515625 -2.347656 2.089844 -1.921875 C 1.550781 -1.386719 0.960938 -1.125 0.316406 -1.144531 C -0.328125 -1.160156 -0.945312 -1.464844 -1.542969 -2.0625 C -2.160156 -2.679688 -2.480469 -3.316406 -2.503906 -3.972656 C -2.527344 -4.632812 -2.285156 -5.214844 -1.777344 -5.722656 C -1.289062 -6.210938 -0.71875 -6.445312 -0.0742188 -6.421875 C 0.570312 -6.398438 1.195312 -6.085938 1.800781 -5.480469 C 1.835938 -5.441406 1.890625 -5.386719 1.960938 -5.308594 L -0.773438 -2.574219 C -0.347656 -2.195312 0.0742188 -2 0.492188 -1.992188 C 0.914062 -1.984375 1.273438 -2.132812 1.582031 -2.4375 C 1.808594 -2.664062 1.945312 -2.917969 1.984375 -3.199219 C 2.027344 -3.480469 1.964844 -3.800781 1.796875 -4.15625 M -1.25 -3.121094 L 0.796875 -5.167969 C 0.460938 -5.449219 0.152344 -5.601562 -0.132812 -5.628906 C -0.570312 -5.667969 -0.945312 -5.53125 -1.261719 -5.21875 C -1.546875 -4.929688 -1.691406 -4.597656 -1.695312 -4.210938 C -1.695312 -3.824219 -1.550781 -3.460938 -1.25 -3.121094 Z M -1.25 -3.121094 "/>
</g>
<g id="glyph-1-14">
<path d="M 1.039062 -1.039062 L 0.460938 -0.460938 L -4.597656 -5.523438 L -3.976562 -6.144531 L -2.171875 -4.339844 C -2.238281 -4.929688 -2.066406 -5.429688 -1.660156 -5.839844 C -1.433594 -6.0625 -1.175781 -6.230469 -0.882812 -6.34375 C -0.589844 -6.453125 -0.296875 -6.492188 -0.00390625 -6.457031 C 0.292969 -6.421875 0.589844 -6.324219 0.898438 -6.167969 C 1.203125 -6.007812 1.488281 -5.796875 1.753906 -5.53125 C 2.382812 -4.902344 2.710938 -4.261719 2.746094 -3.609375 C 2.777344 -2.953125 2.574219 -2.410156 2.140625 -1.976562 C 1.707031 -1.542969 1.1875 -1.382812 0.578125 -1.5 L 1.039062 -1.039062 M -0.828125 -2.894531 C -0.390625 -2.453125 -0.0117188 -2.195312 0.304688 -2.121094 C 0.820312 -1.996094 1.242188 -2.101562 1.578125 -2.433594 C 1.847656 -2.707031 1.964844 -3.058594 1.929688 -3.492188 C 1.890625 -3.925781 1.636719 -4.375 1.171875 -4.84375 C 0.691406 -5.324219 0.242188 -5.582031 -0.175781 -5.621094 C -0.59375 -5.65625 -0.9375 -5.542969 -1.203125 -5.273438 C -1.476562 -5 -1.59375 -4.648438 -1.554688 -4.214844 C -1.515625 -3.78125 -1.273438 -3.339844 -0.828125 -2.894531 Z M -0.828125 -2.894531 "/>
</g>
<g id="glyph-1-15">
<path d="M 0.464844 -0.464844 L -3.199219 -4.132812 L -2.644531 -4.6875 L -2.128906 -4.175781 C -2.195312 -4.46875 -2.1875 -4.765625 -2.105469 -5.066406 C -2.023438 -5.367188 -1.859375 -5.640625 -1.617188 -5.882812 C -1.34375 -6.15625 -1.066406 -6.320312 -0.777344 -6.382812 C -0.492188 -6.441406 -0.210938 -6.40625 0.0625 -6.277344 C -0.0742188 -6.996094 0.0859375 -7.585938 0.550781 -8.050781 C 0.917969 -8.414062 1.296875 -8.59375 1.695312 -8.589844 C 2.089844 -8.582031 2.5 -8.371094 2.917969 -7.953125 L 5.433594 -5.433594 L 4.816406 -4.816406 L 2.507812 -7.125 C 2.257812 -7.375 2.058594 -7.535156 1.910156 -7.601562 C 1.757812 -7.671875 1.597656 -7.6875 1.425781 -7.648438 C 1.253906 -7.609375 1.09375 -7.519531 0.953125 -7.375 C 0.695312 -7.117188 0.566406 -6.816406 0.566406 -6.476562 C 0.570312 -6.132812 0.757812 -5.773438 1.136719 -5.398438 L 3.265625 -3.265625 L 2.644531 -2.644531 L 0.261719 -5.027344 C -0.015625 -5.304688 -0.273438 -5.460938 -0.511719 -5.496094 C -0.75 -5.535156 -0.984375 -5.4375 -1.214844 -5.207031 C -1.390625 -5.03125 -1.507812 -4.824219 -1.5625 -4.582031 C -1.617188 -4.34375 -1.589844 -4.101562 -1.480469 -3.855469 C -1.371094 -3.613281 -1.148438 -3.324219 -0.816406 -2.988281 L 1.085938 -1.085938 Z M 0.464844 -0.464844 "/>
</g>
<g id="glyph-1-16">
<path d="M 2.84375 -2.84375 L 2.382812 -3.308594 C 2.511719 -2.710938 2.355469 -2.1875 1.902344 -1.738281 C 1.609375 -1.445312 1.261719 -1.257812 0.855469 -1.171875 C 0.449219 -1.089844 0.0351562 -1.125 -0.390625 -1.277344 C -0.8125 -1.433594 -1.214844 -1.695312 -1.589844 -2.070312 C -1.953125 -2.4375 -2.226562 -2.832031 -2.402344 -3.25 C -2.578125 -3.671875 -2.621094 -4.082031 -2.539062 -4.484375 C -2.453125 -4.886719 -2.257812 -5.238281 -1.957031 -5.542969 C -1.738281 -5.761719 -1.492188 -5.914062 -1.226562 -5.992188 C -0.960938 -6.070312 -0.699219 -6.089844 -0.441406 -6.050781 L -2.257812 -7.863281 L -1.640625 -8.484375 L 3.421875 -3.421875 L 2.84375 -2.84375 M -0.949219 -2.710938 C -0.480469 -2.242188 -0.03125 -1.988281 0.402344 -1.953125 C 0.832031 -1.917969 1.179688 -2.035156 1.449219 -2.304688 C 1.722656 -2.578125 1.839844 -2.917969 1.808594 -3.332031 C 1.777344 -3.742188 1.53125 -4.175781 1.078125 -4.632812 C 0.574219 -5.136719 0.109375 -5.40625 -0.316406 -5.449219 C -0.746094 -5.488281 -1.101562 -5.367188 -1.382812 -5.085938 C -1.660156 -4.808594 -1.777344 -4.464844 -1.738281 -4.054688 C -1.699219 -3.644531 -1.433594 -3.195312 -0.949219 -2.710938 Z M -0.949219 -2.710938 "/>
</g>
<g id="glyph-1-17">
<path d="M 1.515625 -4.203125 L 2.207031 -4.734375 C 2.5625 -4.246094 2.71875 -3.746094 2.683594 -3.230469 C 2.644531 -2.71875 2.425781 -2.261719 2.027344 -1.859375 C 1.523438 -1.359375 0.957031 -1.121094 0.324219 -1.144531 C -0.308594 -1.164062 -0.929688 -1.484375 -1.542969 -2.097656 C -1.9375 -2.492188 -2.21875 -2.902344 -2.386719 -3.332031 C -2.550781 -3.761719 -2.574219 -4.183594 -2.453125 -4.597656 C -2.335938 -5.015625 -2.117188 -5.382812 -1.800781 -5.695312 C -1.402344 -6.09375 -0.976562 -6.320312 -0.523438 -6.371094 C -0.0703125 -6.421875 0.378906 -6.300781 0.820312 -6 L 0.3125 -5.304688 C 0.0078125 -5.492188 -0.28125 -5.574219 -0.550781 -5.554688 C -0.820312 -5.53125 -1.058594 -5.417969 -1.265625 -5.210938 C -1.582031 -4.898438 -1.722656 -4.53125 -1.695312 -4.109375 C -1.664062 -3.691406 -1.40625 -3.238281 -0.921875 -2.75 C -0.429688 -2.257812 0.0234375 -1.996094 0.433594 -1.960938 C 0.847656 -1.925781 1.203125 -2.0625 1.507812 -2.363281 C 1.753906 -2.609375 1.882812 -2.886719 1.894531 -3.199219 C 1.910156 -3.511719 1.78125 -3.847656 1.515625 -4.203125 Z M 1.515625 -4.203125 "/>
</g>
<g id="glyph-2-0">
<path d="M 1.042969 0 L 1.042969 -9.449219 L 7.875 -9.449219 L 7.875 -8.332031 L 2.292969 -8.332031 L 2.292969 -5.441406 L 7.523438 -5.441406 L 7.523438 -4.332031 L 2.292969 -4.332031 L 2.292969 -1.113281 L 8.09375 -1.113281 L 8.09375 0 Z M 1.042969 0 "/>
</g>
<g id="glyph-2-1">
<path d="M 0.59375 -3.035156 L 1.773438 -3.140625 C 1.828125 -2.667969 1.957031 -2.277344 2.164062 -1.976562 C 2.367188 -1.671875 2.683594 -1.425781 3.113281 -1.242188 C 3.542969 -1.054688 4.027344 -0.960938 4.5625 -0.960938 C 5.039062 -0.960938 5.460938 -1.03125 5.828125 -1.171875 C 6.191406 -1.316406 6.464844 -1.507812 6.640625 -1.757812 C 6.820312 -2.003906 6.910156 -2.273438 6.910156 -2.566406 C 6.910156 -2.863281 6.824219 -3.121094 6.652344 -3.34375 C 6.480469 -3.5625 6.195312 -3.75 5.800781 -3.898438 C 5.546875 -4 4.988281 -4.152344 4.117188 -4.359375 C 3.25 -4.570312 2.640625 -4.765625 2.292969 -4.949219 C 1.84375 -5.1875 1.507812 -5.480469 1.285156 -5.828125 C 1.066406 -6.179688 0.953125 -6.570312 0.953125 -7.007812 C 0.953125 -7.484375 1.089844 -7.929688 1.359375 -8.34375 C 1.628906 -8.757812 2.027344 -9.074219 2.546875 -9.289062 C 3.066406 -9.503906 3.644531 -9.609375 4.28125 -9.609375 C 4.980469 -9.609375 5.597656 -9.496094 6.132812 -9.273438 C 6.667969 -9.046875 7.078125 -8.714844 7.367188 -8.277344 C 7.65625 -7.835938 7.808594 -7.339844 7.832031 -6.785156 L 6.632812 -6.695312 C 6.566406 -7.292969 6.351562 -7.746094 5.976562 -8.050781 C 5.605469 -8.355469 5.058594 -8.507812 4.332031 -8.507812 C 3.574219 -8.507812 3.023438 -8.371094 2.679688 -8.09375 C 2.332031 -7.816406 2.160156 -7.480469 2.160156 -7.089844 C 2.160156 -6.75 2.28125 -6.472656 2.527344 -6.25 C 2.765625 -6.03125 3.394531 -5.808594 4.410156 -5.578125 C 5.429688 -5.347656 6.125 -5.148438 6.503906 -4.976562 C 7.054688 -4.722656 7.460938 -4.402344 7.722656 -4.011719 C 7.984375 -3.625 8.113281 -3.175781 8.113281 -2.667969 C 8.113281 -2.164062 7.96875 -1.691406 7.683594 -1.246094 C 7.394531 -0.800781 6.980469 -0.457031 6.441406 -0.210938 C 5.902344 0.0390625 5.296875 0.160156 4.621094 0.160156 C 3.765625 0.160156 3.050781 0.0351562 2.472656 -0.210938 C 1.894531 -0.460938 1.441406 -0.835938 1.113281 -1.335938 C 0.78125 -1.839844 0.609375 -2.402344 0.59375 -3.035156 Z M 0.59375 -3.035156 "/>
</g>
<g id="glyph-2-2">
</g>
<g id="glyph-2-3">
<path d="M 5.554688 -2.203125 L 6.753906 -2.054688 C 6.566406 -1.355469 6.214844 -0.8125 5.703125 -0.425781 C 5.191406 -0.0390625 4.539062 0.15625 3.746094 0.15625 C 2.742188 0.15625 1.949219 -0.152344 1.363281 -0.769531 C 0.777344 -1.386719 0.484375 -2.25 0.484375 -3.363281 C 0.484375 -4.515625 0.78125 -5.410156 1.371094 -6.046875 C 1.964844 -6.679688 2.734375 -7 3.679688 -7 C 4.59375 -7 5.34375 -6.6875 5.921875 -6.066406 C 6.503906 -5.441406 6.792969 -4.566406 6.792969 -3.433594 C 6.792969 -3.367188 6.792969 -3.261719 6.785156 -3.125 L 1.683594 -3.125 C 1.726562 -2.375 1.9375 -1.796875 2.320312 -1.398438 C 2.703125 -1 3.179688 -0.800781 3.75 -0.800781 C 4.175781 -0.800781 4.539062 -0.910156 4.839844 -1.132812 C 5.140625 -1.359375 5.378906 -1.714844 5.554688 -2.203125 M 1.746094 -4.078125 L 5.570312 -4.078125 C 5.515625 -4.65625 5.371094 -5.085938 5.128906 -5.375 C 4.761719 -5.820312 4.28125 -6.046875 3.691406 -6.046875 C 3.160156 -6.046875 2.710938 -5.867188 2.347656 -5.511719 C 1.984375 -5.152344 1.785156 -4.675781 1.746094 -4.078125 Z M 1.746094 -4.078125 "/>
</g>
<g id="glyph-2-4">
<path d="M 5.3125 0 L 5.3125 -0.863281 C 4.875 -0.183594 4.238281 0.15625 3.398438 0.15625 C 2.851562 0.15625 2.347656 0.00390625 1.890625 -0.296875 C 1.433594 -0.597656 1.078125 -1.015625 0.828125 -1.554688 C 0.578125 -2.097656 0.453125 -2.714844 0.453125 -3.414062 C 0.453125 -4.097656 0.566406 -4.71875 0.792969 -5.277344 C 1.019531 -5.832031 1.363281 -6.257812 1.816406 -6.554688 C 2.273438 -6.851562 2.78125 -7 3.34375 -7 C 3.757812 -7 4.125 -6.914062 4.445312 -6.738281 C 4.769531 -6.566406 5.03125 -6.335938 5.234375 -6.058594 L 5.234375 -9.449219 L 6.386719 -9.449219 L 6.386719 0 L 5.3125 0 M 1.644531 -3.414062 C 1.644531 -2.539062 1.828125 -1.882812 2.199219 -1.449219 C 2.566406 -1.015625 3.003906 -0.800781 3.507812 -0.800781 C 4.011719 -0.800781 4.445312 -1.007812 4.796875 -1.421875 C 5.152344 -1.835938 5.332031 -2.46875 5.332031 -3.320312 C 5.332031 -4.257812 5.148438 -4.945312 4.789062 -5.382812 C 4.429688 -5.820312 3.984375 -6.039062 3.453125 -6.039062 C 2.9375 -6.039062 2.507812 -5.828125 2.164062 -5.40625 C 1.816406 -4.988281 1.644531 -4.324219 1.644531 -3.414062 Z M 1.644531 -3.414062 "/>
</g>
<g id="glyph-2-5">
<path d="M 0.875 -8.113281 L 0.875 -9.449219 L 2.035156 -9.449219 L 2.035156 -8.113281 L 0.875 -8.113281 M 0.875 0 L 0.875 -6.84375 L 2.035156 -6.84375 L 2.035156 0 Z M 0.875 0 "/>
</g>
<g id="glyph-2-6">
<path d="M 3.402344 -1.039062 L 3.570312 -0.0117188 C 3.242188 0.0546875 2.953125 0.0898438 2.695312 0.0898438 C 2.273438 0.0898438 1.945312 0.0234375 1.714844 -0.109375 C 1.484375 -0.242188 1.320312 -0.417969 1.226562 -0.636719 C 1.128906 -0.851562 1.082031 -1.308594 1.082031 -2.003906 L 1.082031 -5.941406 L 0.230469 -5.941406 L 0.230469 -6.84375 L 1.082031 -6.84375 L 1.082031 -8.539062 L 2.238281 -9.234375 L 2.238281 -6.84375 L 3.402344 -6.84375 L 3.402344 -5.941406 L 2.238281 -5.941406 L 2.238281 -1.941406 C 2.238281 -1.609375 2.257812 -1.394531 2.296875 -1.300781 C 2.339844 -1.207031 2.40625 -1.132812 2.496094 -1.078125 C 2.589844 -1.019531 2.722656 -0.992188 2.894531 -0.992188 C 3.023438 -0.992188 3.191406 -1.007812 3.402344 -1.039062 Z M 3.402344 -1.039062 "/>
</g>
<g id="glyph-2-7">
<path d="M 0.4375 -3.421875 C 0.4375 -4.691406 0.789062 -5.628906 1.496094 -6.238281 C 2.082031 -6.746094 2.800781 -7 3.648438 -7 C 4.589844 -7 5.359375 -6.691406 5.957031 -6.074219 C 6.550781 -5.457031 6.851562 -4.605469 6.851562 -3.519531 C 6.851562 -2.636719 6.71875 -1.945312 6.453125 -1.441406 C 6.191406 -0.9375 5.804688 -0.542969 5.300781 -0.265625 C 4.796875 0.015625 4.246094 0.15625 3.648438 0.15625 C 2.691406 0.15625 1.914062 -0.152344 1.324219 -0.765625 C 0.734375 -1.382812 0.4375 -2.265625 0.4375 -3.421875 M 1.628906 -3.421875 C 1.628906 -2.546875 1.820312 -1.890625 2.203125 -1.453125 C 2.585938 -1.015625 3.066406 -0.800781 3.648438 -0.800781 C 4.222656 -0.800781 4.703125 -1.019531 5.085938 -1.457031 C 5.46875 -1.894531 5.660156 -2.5625 5.660156 -3.460938 C 5.660156 -4.308594 5.464844 -4.949219 5.082031 -5.386719 C 4.699219 -5.820312 4.21875 -6.039062 3.648438 -6.039062 C 3.066406 -6.039062 2.585938 -5.820312 2.203125 -5.386719 C 1.820312 -4.953125 1.628906 -4.300781 1.628906 -3.421875 Z M 1.628906 -3.421875 "/>
</g>
<g id="glyph-2-8">
<path d="M 0.871094 0 L 0.871094 -6.84375 L 1.914062 -6.84375 L 1.914062 -5.871094 C 2.417969 -6.625 3.144531 -7 4.09375 -7 C 4.503906 -7 4.882812 -6.925781 5.230469 -6.777344 C 5.578125 -6.628906 5.835938 -6.433594 6.007812 -6.195312 C 6.179688 -5.953125 6.300781 -5.667969 6.367188 -5.335938 C 6.410156 -5.121094 6.433594 -4.746094 6.433594 -4.207031 L 6.433594 0 L 5.273438 0 L 5.273438 -4.164062 C 5.273438 -4.636719 5.226562 -4.988281 5.136719 -5.222656 C 5.046875 -5.457031 4.886719 -5.644531 4.65625 -5.785156 C 4.425781 -5.925781 4.15625 -5.992188 3.847656 -5.992188 C 3.355469 -5.992188 2.925781 -5.835938 2.570312 -5.523438 C 2.210938 -5.210938 2.03125 -4.613281 2.03125 -3.738281 L 2.03125 0 Z M 0.871094 0 "/>
</g>
<g id="glyph-2-9">
<path d="M 6.644531 -1.113281 L 6.644531 0 L 0.398438 0 C 0.390625 -0.277344 0.4375 -0.546875 0.535156 -0.804688 C 0.695312 -1.230469 0.949219 -1.648438 1.296875 -2.0625 C 1.648438 -2.476562 2.15625 -2.953125 2.816406 -3.492188 C 3.84375 -4.335938 4.539062 -5.003906 4.898438 -5.496094 C 5.257812 -5.988281 5.441406 -6.453125 5.441406 -6.890625 C 5.441406 -7.351562 5.277344 -7.738281 4.945312 -8.054688 C 4.617188 -8.371094 4.1875 -8.527344 3.660156 -8.527344 C 3.101562 -8.527344 2.65625 -8.359375 2.320312 -8.023438 C 1.984375 -7.6875 1.816406 -7.226562 1.8125 -6.632812 L 0.617188 -6.753906 C 0.699219 -7.644531 1.007812 -8.320312 1.539062 -8.789062 C 2.074219 -9.253906 2.789062 -9.488281 3.6875 -9.488281 C 4.59375 -9.488281 5.3125 -9.234375 5.839844 -8.734375 C 6.367188 -8.230469 6.632812 -7.609375 6.632812 -6.863281 C 6.632812 -6.484375 6.554688 -6.113281 6.398438 -5.75 C 6.246094 -5.382812 5.988281 -5 5.628906 -4.59375 C 5.269531 -4.191406 4.675781 -3.636719 3.839844 -2.933594 C 3.144531 -2.347656 2.699219 -1.953125 2.5 -1.742188 C 2.304688 -1.535156 2.140625 -1.324219 2.011719 -1.113281 Z M 6.644531 -1.113281 "/>
</g>
<g id="glyph-2-10">
<path d="M 1.199219 0 L 1.199219 -1.320312 L 2.519531 -1.320312 L 2.519531 0 Z M 1.199219 0 "/>
</g>
<g id="glyph-2-11">
<path d="M 6.566406 -7.136719 L 5.414062 -7.042969 C 5.3125 -7.5 5.164062 -7.832031 4.976562 -8.039062 C 4.660156 -8.367188 4.273438 -8.535156 3.816406 -8.535156 C 3.445312 -8.535156 3.121094 -8.429688 2.84375 -8.222656 C 2.476562 -7.957031 2.1875 -7.570312 1.980469 -7.058594 C 1.769531 -6.546875 1.660156 -5.816406 1.648438 -4.871094 C 1.929688 -5.296875 2.269531 -5.613281 2.675781 -5.820312 C 3.078125 -6.027344 3.5 -6.128906 3.945312 -6.128906 C 4.71875 -6.128906 5.375 -5.84375 5.921875 -5.277344 C 6.464844 -4.707031 6.734375 -3.96875 6.734375 -3.066406 C 6.734375 -2.476562 6.609375 -1.925781 6.351562 -1.414062 C 6.097656 -0.90625 5.746094 -0.515625 5.296875 -0.246094 C 4.851562 0.0273438 4.34375 0.160156 3.777344 0.160156 C 2.808594 0.160156 2.023438 -0.195312 1.410156 -0.90625 C 0.800781 -1.617188 0.496094 -2.789062 0.496094 -4.421875 C 0.496094 -6.246094 0.832031 -7.574219 1.507812 -8.40625 C 2.097656 -9.125 2.890625 -9.488281 3.886719 -9.488281 C 4.628906 -9.488281 5.238281 -9.277344 5.714844 -8.863281 C 6.1875 -8.445312 6.472656 -7.871094 6.566406 -7.136719 M 1.832031 -3.0625 C 1.832031 -2.660156 1.914062 -2.28125 2.085938 -1.914062 C 2.253906 -1.550781 2.492188 -1.269531 2.796875 -1.078125 C 3.101562 -0.886719 3.421875 -0.792969 3.757812 -0.792969 C 4.246094 -0.792969 4.667969 -0.992188 5.019531 -1.386719 C 5.375 -1.78125 5.550781 -2.316406 5.550781 -2.996094 C 5.550781 -3.648438 5.375 -4.164062 5.027344 -4.539062 C 4.679688 -4.917969 4.242188 -5.105469 3.710938 -5.105469 C 3.1875 -5.105469 2.742188 -4.917969 2.378906 -4.539062 C 2.011719 -4.164062 1.832031 -3.671875 1.832031 -3.0625 Z M 1.832031 -3.0625 "/>
</g>
</g>
<clipPath id="clip-0">
<path clip-rule="nonzero" d="M 5.480469 292 L 527.175781 292 L 527.175781 293 L 5.480469 293 Z M 5.480469 292 "/>
</clipPath>
<clipPath id="clip-1">
<path clip-rule="nonzero" d="M 5.480469 225 L 527.175781 225 L 527.175781 226 L 5.480469 226 Z M 5.480469 225 "/>
</clipPath>
<clipPath id="clip-2">
<path clip-rule="nonzero" d="M 5.480469 158 L 527.175781 158 L 527.175781 159 L 5.480469 159 Z M 5.480469 158 "/>
</clipPath>
<clipPath id="clip-3">
<path clip-rule="nonzero" d="M 5.480469 90 L 527.175781 90 L 527.175781 92 L 5.480469 92 Z M 5.480469 90 "/>
</clipPath>
<clipPath id="clip-4">
<path clip-rule="nonzero" d="M 5.480469 325 L 527.175781 325 L 527.175781 327 L 5.480469 327 Z M 5.480469 325 "/>
</clipPath>
<clipPath id="clip-5">
<path clip-rule="nonzero" d="M 5.480469 258 L 527.175781 258 L 527.175781 260 L 5.480469 260 Z M 5.480469 258 "/>
</clipPath>
<clipPath id="clip-6">
<path clip-rule="nonzero" d="M 5.480469 191 L 527.175781 191 L 527.175781 193 L 5.480469 193 Z M 5.480469 191 "/>
</clipPath>
<clipPath id="clip-7">
<path clip-rule="nonzero" d="M 5.480469 124 L 527.175781 124 L 527.175781 126 L 5.480469 126 Z M 5.480469 124 "/>
</clipPath>
<clipPath id="clip-8">
<path clip-rule="nonzero" d="M 5.480469 57 L 527.175781 57 L 527.175781 59 L 5.480469 59 Z M 5.480469 57 "/>
</clipPath>
<clipPath id="clip-9">
<path clip-rule="nonzero" d="M 30 44.105469 L 32 44.105469 L 32 339.59375 L 30 339.59375 Z M 30 44.105469 "/>
</clipPath>
<clipPath id="clip-10">
<path clip-rule="nonzero" d="M 73 44.105469 L 75 44.105469 L 75 339.59375 L 73 339.59375 Z M 73 44.105469 "/>
</clipPath>
<clipPath id="clip-11">
<path clip-rule="nonzero" d="M 116 44.105469 L 118 44.105469 L 118 339.59375 L 116 339.59375 Z M 116 44.105469 "/>
</clipPath>
<clipPath id="clip-12">
<path clip-rule="nonzero" d="M 158 44.105469 L 160 44.105469 L 160 339.59375 L 158 339.59375 Z M 158 44.105469 "/>
</clipPath>
<clipPath id="clip-13">
<path clip-rule="nonzero" d="M 201 44.105469 L 203 44.105469 L 203 339.59375 L 201 339.59375 Z M 201 44.105469 "/>
</clipPath>
<clipPath id="clip-14">
<path clip-rule="nonzero" d="M 244 44.105469 L 246 44.105469 L 246 339.59375 L 244 339.59375 Z M 244 44.105469 "/>
</clipPath>
<clipPath id="clip-15">
<path clip-rule="nonzero" d="M 287 44.105469 L 289 44.105469 L 289 339.59375 L 287 339.59375 Z M 287 44.105469 "/>
</clipPath>
<clipPath id="clip-16">
<path clip-rule="nonzero" d="M 329 44.105469 L 332 44.105469 L 332 339.59375 L 329 339.59375 Z M 329 44.105469 "/>
</clipPath>
<clipPath id="clip-17">
<path clip-rule="nonzero" d="M 372 44.105469 L 374 44.105469 L 374 339.59375 L 372 339.59375 Z M 372 44.105469 "/>
</clipPath>
<clipPath id="clip-18">
<path clip-rule="nonzero" d="M 415 44.105469 L 417 44.105469 L 417 339.59375 L 415 339.59375 Z M 415 44.105469 "/>
</clipPath>
<clipPath id="clip-19">
<path clip-rule="nonzero" d="M 458 44.105469 L 460 44.105469 L 460 339.59375 L 458 339.59375 Z M 458 44.105469 "/>
</clipPath>
<clipPath id="clip-20">
<path clip-rule="nonzero" d="M 500 44.105469 L 503 44.105469 L 503 339.59375 L 500 339.59375 Z M 500 44.105469 "/>
</clipPath>
<clipPath id="clip-21">
<path clip-rule="nonzero" d="M 532.652344 292 L 1054.347656 292 L 1054.347656 293 L 532.652344 293 Z M 532.652344 292 "/>
</clipPath>
<clipPath id="clip-22">
<path clip-rule="nonzero" d="M 532.652344 225 L 1054.347656 225 L 1054.347656 226 L 532.652344 226 Z M 532.652344 225 "/>
</clipPath>
<clipPath id="clip-23">
<path clip-rule="nonzero" d="M 532.652344 158 L 1054.347656 158 L 1054.347656 159 L 532.652344 159 Z M 532.652344 158 "/>
</clipPath>
<clipPath id="clip-24">
<path clip-rule="nonzero" d="M 532.652344 90 L 1054.347656 90 L 1054.347656 92 L 532.652344 92 Z M 532.652344 90 "/>
</clipPath>
<clipPath id="clip-25">
<path clip-rule="nonzero" d="M 532.652344 325 L 1054.347656 325 L 1054.347656 327 L 532.652344 327 Z M 532.652344 325 "/>
</clipPath>
<clipPath id="clip-26">
<path clip-rule="nonzero" d="M 532.652344 258 L 1054.347656 258 L 1054.347656 260 L 532.652344 260 Z M 532.652344 258 "/>
</clipPath>
<clipPath id="clip-27">
<path clip-rule="nonzero" d="M 532.652344 191 L 1054.347656 191 L 1054.347656 193 L 532.652344 193 Z M 532.652344 191 "/>
</clipPath>
<clipPath id="clip-28">
<path clip-rule="nonzero" d="M 532.652344 124 L 1054.347656 124 L 1054.347656 126 L 532.652344 126 Z M 532.652344 124 "/>
</clipPath>
<clipPath id="clip-29">
<path clip-rule="nonzero" d="M 532.652344 57 L 1054.347656 57 L 1054.347656 59 L 532.652344 59 Z M 532.652344 57 "/>
</clipPath>
<clipPath id="clip-30">
<path clip-rule="nonzero" d="M 557 44.105469 L 559 44.105469 L 559 339.59375 L 557 339.59375 Z M 557 44.105469 "/>
</clipPath>
<clipPath id="clip-31">
<path clip-rule="nonzero" d="M 600 44.105469 L 602 44.105469 L 602 339.59375 L 600 339.59375 Z M 600 44.105469 "/>
</clipPath>
<clipPath id="clip-32">
<path clip-rule="nonzero" d="M 643 44.105469 L 645 44.105469 L 645 339.59375 L 643 339.59375 Z M 643 44.105469 "/>
</clipPath>
<clipPath id="clip-33">
<path clip-rule="nonzero" d="M 686 44.105469 L 688 44.105469 L 688 339.59375 L 686 339.59375 Z M 686 44.105469 "/>
</clipPath>
<clipPath id="clip-34">
<path clip-rule="nonzero" d="M 728 44.105469 L 730 44.105469 L 730 339.59375 L 728 339.59375 Z M 728 44.105469 "/>
</clipPath>
<clipPath id="clip-35">
<path clip-rule="nonzero" d="M 771 44.105469 L 773 44.105469 L 773 339.59375 L 771 339.59375 Z M 771 44.105469 "/>
</clipPath>
<clipPath id="clip-36">
<path clip-rule="nonzero" d="M 814 44.105469 L 816 44.105469 L 816 339.59375 L 814 339.59375 Z M 814 44.105469 "/>
</clipPath>
<clipPath id="clip-37">
<path clip-rule="nonzero" d="M 857 44.105469 L 859 44.105469 L 859 339.59375 L 857 339.59375 Z M 857 44.105469 "/>
</clipPath>
<clipPath id="clip-38">
<path clip-rule="nonzero" d="M 899 44.105469 L 901 44.105469 L 901 339.59375 L 899 339.59375 Z M 899 44.105469 "/>
</clipPath>
<clipPath id="clip-39">
<path clip-rule="nonzero" d="M 942 44.105469 L 944 44.105469 L 944 339.59375 L 942 339.59375 Z M 942 44.105469 "/>
</clipPath>
<clipPath id="clip-40">
<path clip-rule="nonzero" d="M 985 44.105469 L 987 44.105469 L 987 339.59375 L 985 339.59375 Z M 985 44.105469 "/>
</clipPath>
<clipPath id="clip-41">
<path clip-rule="nonzero" d="M 1028 44.105469 L 1030 44.105469 L 1030 339.59375 L 1028 339.59375 Z M 1028 44.105469 "/>
</clipPath>
<clipPath id="clip-42">
<path clip-rule="nonzero" d="M 1059.828125 292 L 1581.523438 292 L 1581.523438 293 L 1059.828125 293 Z M 1059.828125 292 "/>
</clipPath>
<clipPath id="clip-43">
<path clip-rule="nonzero" d="M 1059.828125 225 L 1581.523438 225 L 1581.523438 226 L 1059.828125 226 Z M 1059.828125 225 "/>
</clipPath>
<clipPath id="clip-44">
<path clip-rule="nonzero" d="M 1059.828125 158 L 1581.523438 158 L 1581.523438 159 L 1059.828125 159 Z M 1059.828125 158 "/>
</clipPath>
<clipPath id="clip-45">
<path clip-rule="nonzero" d="M 1059.828125 90 L 1581.523438 90 L 1581.523438 92 L 1059.828125 92 Z M 1059.828125 90 "/>
</clipPath>
<clipPath id="clip-46">
<path clip-rule="nonzero" d="M 1059.828125 325 L 1581.523438 325 L 1581.523438 327 L 1059.828125 327 Z M 1059.828125 325 "/>
</clipPath>
<clipPath id="clip-47">
<path clip-rule="nonzero" d="M 1059.828125 258 L 1581.523438 258 L 1581.523438 260 L 1059.828125 260 Z M 1059.828125 258 "/>
</clipPath>
<clipPath id="clip-48">
<path clip-rule="nonzero" d="M 1059.828125 191 L 1581.523438 191 L 1581.523438 193 L 1059.828125 193 Z M 1059.828125 191 "/>
</clipPath>
<clipPath id="clip-49">
<path clip-rule="nonzero" d="M 1059.828125 124 L 1581.523438 124 L 1581.523438 126 L 1059.828125 126 Z M 1059.828125 124 "/>
</clipPath>
<clipPath id="clip-50">
<path clip-rule="nonzero" d="M 1059.828125 57 L 1581.523438 57 L 1581.523438 59 L 1059.828125 59 Z M 1059.828125 57 "/>
</clipPath>
<clipPath id="clip-51">
<path clip-rule="nonzero" d="M 1084 44.105469 L 1087 44.105469 L 1087 339.59375 L 1084 339.59375 Z M 1084 44.105469 "/>
</clipPath>
<clipPath id="clip-52">
<path clip-rule="nonzero" d="M 1127 44.105469 L 1129 44.105469 L 1129 339.59375 L 1127 339.59375 Z M 1127 44.105469 "/>
</clipPath>
<clipPath id="clip-53">
<path clip-rule="nonzero" d="M 1170 44.105469 L 1172 44.105469 L 1172 339.59375 L 1170 339.59375 Z M 1170 44.105469 "/>
</clipPath>
<clipPath id="clip-54">
<path clip-rule="nonzero" d="M 1213 44.105469 L 1215 44.105469 L 1215 339.59375 L 1213 339.59375 Z M 1213 44.105469 "/>
</clipPath>
<clipPath id="clip-55">
<path clip-rule="nonzero" d="M 1255 44.105469 L 1258 44.105469 L 1258 339.59375 L 1255 339.59375 Z M 1255 44.105469 "/>
</clipPath>
<clipPath id="clip-56">
<path clip-rule="nonzero" d="M 1298 44.105469 L 1300 44.105469 L 1300 339.59375 L 1298 339.59375 Z M 1298 44.105469 "/>
</clipPath>
<clipPath id="clip-57">
<path clip-rule="nonzero" d="M 1341 44.105469 L 1343 44.105469 L 1343 339.59375 L 1341 339.59375 Z M 1341 44.105469 "/>
</clipPath>
<clipPath id="clip-58">
<path clip-rule="nonzero" d="M 1384 44.105469 L 1386 44.105469 L 1386 339.59375 L 1384 339.59375 Z M 1384 44.105469 "/>
</clipPath>
<clipPath id="clip-59">
<path clip-rule="nonzero" d="M 1427 44.105469 L 1429 44.105469 L 1429 339.59375 L 1427 339.59375 Z M 1427 44.105469 "/>
</clipPath>
<clipPath id="clip-60">
<path clip-rule="nonzero" d="M 1469 44.105469 L 1471 44.105469 L 1471 339.59375 L 1469 339.59375 Z M 1469 44.105469 "/>
</clipPath>
<clipPath id="clip-61">
<path clip-rule="nonzero" d="M 1512 44.105469 L 1514 44.105469 L 1514 339.59375 L 1512 339.59375 Z M 1512 44.105469 "/>
</clipPath>
<clipPath id="clip-62">
<path clip-rule="nonzero" d="M 1555 44.105469 L 1557 44.105469 L 1557 339.59375 L 1555 339.59375 Z M 1555 44.105469 "/>
</clipPath>
</defs>
<rect x="-158.7" y="-39.6" width="1904.4" height="475.2" fill="rgb(100%, 100%, 100%)" fill-opacity="1"/>
<rect x="-158.7" y="-39.6" width="1904.4" height="475.2" fill="rgb(100%, 100%, 100%)" fill-opacity="1"/>
<g clip-path="url(#clip-0)">
<path fill="none" stroke-width="0.533489" stroke-linecap="butt" stroke-linejoin="round" stroke="rgb(92.156863%, 92.156863%, 92.156863%)" stroke-opacity="1" stroke-miterlimit="10" d="M 5.480469 292.582031 L 527.171875 292.582031 "/>
</g>
<g clip-path="url(#clip-1)">
<path fill="none" stroke-width="0.533489" stroke-linecap="butt" stroke-linejoin="round" stroke="rgb(92.156863%, 92.156863%, 92.156863%)" stroke-opacity="1" stroke-miterlimit="10" d="M 5.480469 225.425781 L 527.171875 225.425781 "/>
</g>
<g clip-path="url(#clip-2)">
<path fill="none" stroke-width="0.533489" stroke-linecap="butt" stroke-linejoin="round" stroke="rgb(92.156863%, 92.156863%, 92.156863%)" stroke-opacity="1" stroke-miterlimit="10" d="M 5.480469 158.269531 L 527.171875 158.269531 "/>
</g>
<g clip-path="url(#clip-3)">
<path fill="none" stroke-width="0.533489" stroke-linecap="butt" stroke-linejoin="round" stroke="rgb(92.156863%, 92.156863%, 92.156863%)" stroke-opacity="1" stroke-miterlimit="10" d="M 5.480469 91.113281 L 527.171875 91.113281 "/>
</g>
<g clip-path="url(#clip-4)">
<path fill="none" stroke-width="1.066978" stroke-linecap="butt" stroke-linejoin="round" stroke="rgb(92.156863%, 92.156863%, 92.156863%)" stroke-opacity="1" stroke-miterlimit="10" d="M 5.480469 326.160156 L 527.171875 326.160156 "/>
</g>
<g clip-path="url(#clip-5)">
<path fill="none" stroke-width="1.066978" stroke-linecap="butt" stroke-linejoin="round" stroke="rgb(92.156863%, 92.156863%, 92.156863%)" stroke-opacity="1" stroke-miterlimit="10" d="M 5.480469 259.003906 L 527.171875 259.003906 "/>
</g>
<g clip-path="url(#clip-6)">
<path fill="none" stroke-width="1.066978" stroke-linecap="butt" stroke-linejoin="round" stroke="rgb(92.156863%, 92.156863%, 92.156863%)" stroke-opacity="1" stroke-miterlimit="10" d="M 5.480469 191.847656 L 527.171875 191.847656 "/>
</g>
<g clip-path="url(#clip-7)">
<path fill="none" stroke-width="1.066978" stroke-linecap="butt" stroke-linejoin="round" stroke="rgb(92.156863%, 92.156863%, 92.156863%)" stroke-opacity="1" stroke-miterlimit="10" d="M 5.480469 124.691406 L 527.171875 124.691406 "/>
</g>
<g clip-path="url(#clip-8)">
<path fill="none" stroke-width="1.066978" stroke-linecap="butt" stroke-linejoin="round" stroke="rgb(92.156863%, 92.156863%, 92.156863%)" stroke-opacity="1" stroke-miterlimit="10" d="M 5.480469 57.535156 L 527.171875 57.535156 "/>
</g>
<g clip-path="url(#clip-9)">
<path fill="none" stroke-width="1.066978" stroke-linecap="butt" stroke-linejoin="round" stroke="rgb(92.156863%, 92.156863%, 92.156863%)" stroke-opacity="1" stroke-miterlimit="10" d="M 31.136719 339.589844 L 31.136719 44.105469 "/>
</g>
<g clip-path="url(#clip-10)">
<path fill="none" stroke-width="1.066978" stroke-linecap="butt" stroke-linejoin="round" stroke="rgb(92.156863%, 92.156863%, 92.156863%)" stroke-opacity="1" stroke-miterlimit="10" d="M 73.898438 339.589844 L 73.898438 44.105469 "/>
</g>
<g clip-path="url(#clip-11)">
<path fill="none" stroke-width="1.066978" stroke-linecap="butt" stroke-linejoin="round" stroke="rgb(92.156863%, 92.156863%, 92.156863%)" stroke-opacity="1" stroke-miterlimit="10" d="M 116.660156 339.589844 L 116.660156 44.105469 "/>
</g>
<g clip-path="url(#clip-12)">
<path fill="none" stroke-width="1.066978" stroke-linecap="butt" stroke-linejoin="round" stroke="rgb(92.156863%, 92.156863%, 92.156863%)" stroke-opacity="1" stroke-miterlimit="10" d="M 159.421875 339.589844 L 159.421875 44.105469 "/>
</g>
<g clip-path="url(#clip-13)">
<path fill="none" stroke-width="1.066978" stroke-linecap="butt" stroke-linejoin="round" stroke="rgb(92.156863%, 92.156863%, 92.156863%)" stroke-opacity="1" stroke-miterlimit="10" d="M 202.183594 339.589844 L 202.183594 44.105469 "/>
</g>
<g clip-path="url(#clip-14)">
<path fill="none" stroke-width="1.066978" stroke-linecap="butt" stroke-linejoin="round" stroke="rgb(92.156863%, 92.156863%, 92.156863%)" stroke-opacity="1" stroke-miterlimit="10" d="M 244.945312 339.589844 L 244.945312 44.105469 "/>
</g>
<g clip-path="url(#clip-15)">
<path fill="none" stroke-width="1.066978" stroke-linecap="butt" stroke-linejoin="round" stroke="rgb(92.156863%, 92.156863%, 92.156863%)" stroke-opacity="1" stroke-miterlimit="10" d="M 287.707031 339.589844 L 287.707031 44.105469 "/>
</g>
<g clip-path="url(#clip-16)">
<path fill="none" stroke-width="1.066978" stroke-linecap="butt" stroke-linejoin="round" stroke="rgb(92.156863%, 92.156863%, 92.156863%)" stroke-opacity="1" stroke-miterlimit="10" d="M 330.46875 339.589844 L 330.46875 44.105469 "/>
</g>
<g clip-path="url(#clip-17)">
<path fill="none" stroke-width="1.066978" stroke-linecap="butt" stroke-linejoin="round" stroke="rgb(92.156863%, 92.156863%, 92.156863%)" stroke-opacity="1" stroke-miterlimit="10" d="M 373.230469 339.589844 L 373.230469 44.105469 "/>
</g>
<g clip-path="url(#clip-18)">
<path fill="none" stroke-width="1.066978" stroke-linecap="butt" stroke-linejoin="round" stroke="rgb(92.156863%, 92.156863%, 92.156863%)" stroke-opacity="1" stroke-miterlimit="10" d="M 415.992188 339.589844 L 415.992188 44.105469 "/>
</g>
<g clip-path="url(#clip-19)">
<path fill="none" stroke-width="1.066978" stroke-linecap="butt" stroke-linejoin="round" stroke="rgb(92.156863%, 92.156863%, 92.156863%)" stroke-opacity="1" stroke-miterlimit="10" d="M 458.753906 339.589844 L 458.753906 44.105469 "/>
</g>
<g clip-path="url(#clip-20)">
<path fill="none" stroke-width="1.066978" stroke-linecap="butt" stroke-linejoin="round" stroke="rgb(92.156863%, 92.156863%, 92.156863%)" stroke-opacity="1" stroke-miterlimit="10" d="M 501.515625 339.589844 L 501.515625 44.105469 "/>
</g>
<path fill-rule="nonzero" fill="rgb(0%, 39.215686%, 0%)" fill-opacity="1" d="M 11.894531 326.160156 L 50.378906 326.160156 L 50.378906 179.636719 L 11.894531 179.636719 Z M 11.894531 326.160156 "/>
<path fill-rule="nonzero" fill="rgb(0%, 39.215686%, 0%)" fill-opacity="1" d="M 54.65625 326.160156 L 93.140625 326.160156 L 93.140625 204.058594 L 54.65625 204.058594 Z M 54.65625 326.160156 "/>
<path fill-rule="nonzero" fill="rgb(0%, 39.215686%, 0%)" fill-opacity="1" d="M 97.417969 326.160156 L 135.902344 326.160156 L 135.902344 204.058594 L 97.417969 204.058594 Z M 97.417969 326.160156 "/>
<path fill-rule="nonzero" fill="rgb(0%, 39.215686%, 0%)" fill-opacity="1" d="M 140.179688 326.160156 L 178.664062 326.160156 L 178.664062 179.636719 L 140.179688 179.636719 Z M 140.179688 326.160156 "/>
<path fill-rule="nonzero" fill="rgb(0%, 39.215686%, 0%)" fill-opacity="1" d="M 182.941406 326.160156 L 221.425781 326.160156 L 221.425781 281.390625 L 182.941406 281.390625 Z M 182.941406 326.160156 "/>
<path fill-rule="nonzero" fill="rgb(0%, 39.215686%, 0%)" fill-opacity="1" d="M 225.703125 326.160156 L 264.1875 326.160156 L 264.1875 281.390625 L 225.703125 281.390625 Z M 225.703125 326.160156 "/>
<path fill-rule="nonzero" fill="rgb(0%, 39.215686%, 0%)" fill-opacity="1" d="M 268.464844 326.160156 L 306.949219 326.160156 L 306.949219 236.617188 L 268.464844 236.617188 Z M 268.464844 326.160156 "/>
<path fill-rule="nonzero" fill="rgb(0%, 39.215686%, 0%)" fill-opacity="1" d="M 311.226562 326.160156 L 349.710938 326.160156 L 349.710938 281.390625 L 311.226562 281.390625 Z M 311.226562 326.160156 "/>
<path fill-rule="nonzero" fill="rgb(0%, 39.215686%, 0%)" fill-opacity="1" d="M 353.988281 326.160156 L 392.472656 326.160156 L 392.472656 281.390625 L 353.988281 281.390625 Z M 353.988281 326.160156 "/>
<path fill-rule="nonzero" fill="rgb(0%, 39.215686%, 0%)" fill-opacity="1" d="M 396.75 326.160156 L 435.234375 326.160156 L 435.234375 281.390625 L 396.75 281.390625 Z M 396.75 326.160156 "/>
<path fill-rule="nonzero" fill="rgb(0%, 39.215686%, 0%)" fill-opacity="1" d="M 439.511719 326.160156 L 477.996094 326.160156 L 477.996094 281.390625 L 439.511719 281.390625 Z M 439.511719 326.160156 "/>
<path fill-rule="nonzero" fill="rgb(0%, 39.215686%, 0%)" fill-opacity="1" d="M 482.273438 326.160156 L 520.757812 326.160156 L 520.757812 272.433594 L 482.273438 272.433594 Z M 482.273438 326.160156 "/>
<g clip-path="url(#clip-21)">
<path fill="none" stroke-width="0.533489" stroke-linecap="butt" stroke-linejoin="round" stroke="rgb(92.156863%, 92.156863%, 92.156863%)" stroke-opacity="1" stroke-miterlimit="10" d="M 532.652344 292.582031 L 1054.347656 292.582031 "/>
</g>
<g clip-path="url(#clip-22)">
<path fill="none" stroke-width="0.533489" stroke-linecap="butt" stroke-linejoin="round" stroke="rgb(92.156863%, 92.156863%, 92.156863%)" stroke-opacity="1" stroke-miterlimit="10" d="M 532.652344 225.425781 L 1054.347656 225.425781 "/>
</g>
<g clip-path="url(#clip-23)">
<path fill="none" stroke-width="0.533489" stroke-linecap="butt" stroke-linejoin="round" stroke="rgb(92.156863%, 92.156863%, 92.156863%)" stroke-opacity="1" stroke-miterlimit="10" d="M 532.652344 158.269531 L 1054.347656 158.269531 "/>
</g>
<g clip-path="url(#clip-24)">
<path fill="none" stroke-width="0.533489" stroke-linecap="butt" stroke-linejoin="round" stroke="rgb(92.156863%, 92.156863%, 92.156863%)" stroke-opacity="1" stroke-miterlimit="10" d="M 532.652344 91.113281 L 1054.347656 91.113281 "/>
</g>
<g clip-path="url(#clip-25)">
<path fill="none" stroke-width="1.066978" stroke-linecap="butt" stroke-linejoin="round" stroke="rgb(92.156863%, 92.156863%, 92.156863%)" stroke-opacity="1" stroke-miterlimit="10" d="M 532.652344 326.160156 L 1054.347656 326.160156 "/>
</g>
<g clip-path="url(#clip-26)">
<path fill="none" stroke-width="1.066978" stroke-linecap="butt" stroke-linejoin="round" stroke="rgb(92.156863%, 92.156863%, 92.156863%)" stroke-opacity="1" stroke-miterlimit="10" d="M 532.652344 259.003906 L 1054.347656 259.003906 "/>
</g>
<g clip-path="url(#clip-27)">
<path fill="none" stroke-width="1.066978" stroke-linecap="butt" stroke-linejoin="round" stroke="rgb(92.156863%, 92.156863%, 92.156863%)" stroke-opacity="1" stroke-miterlimit="10" d="M 532.652344 191.847656 L 1054.347656 191.847656 "/>
</g>
<g clip-path="url(#clip-28)">
<path fill="none" stroke-width="1.066978" stroke-linecap="butt" stroke-linejoin="round" stroke="rgb(92.156863%, 92.156863%, 92.156863%)" stroke-opacity="1" stroke-miterlimit="10" d="M 532.652344 124.691406 L 1054.347656 124.691406 "/>
</g>
<g clip-path="url(#clip-29)">
<path fill="none" stroke-width="1.066978" stroke-linecap="butt" stroke-linejoin="round" stroke="rgb(92.156863%, 92.156863%, 92.156863%)" stroke-opacity="1" stroke-miterlimit="10" d="M 532.652344 57.535156 L 1054.347656 57.535156 "/>
</g>
<g clip-path="url(#clip-30)">
<path fill="none" stroke-width="1.066978" stroke-linecap="butt" stroke-linejoin="round" stroke="rgb(92.156863%, 92.156863%, 92.156863%)" stroke-opacity="1" stroke-miterlimit="10" d="M 558.308594 339.589844 L 558.308594 44.105469 "/>
</g>
<g clip-path="url(#clip-31)">
<path fill="none" stroke-width="1.066978" stroke-linecap="butt" stroke-linejoin="round" stroke="rgb(92.156863%, 92.156863%, 92.156863%)" stroke-opacity="1" stroke-miterlimit="10" d="M 601.070312 339.589844 L 601.070312 44.105469 "/>
</g>
<g clip-path="url(#clip-32)">
<path fill="none" stroke-width="1.066978" stroke-linecap="butt" stroke-linejoin="round" stroke="rgb(92.156863%, 92.156863%, 92.156863%)" stroke-opacity="1" stroke-miterlimit="10" d="M 643.832031 339.589844 L 643.832031 44.105469 "/>
</g>
<g clip-path="url(#clip-33)">
<path fill="none" stroke-width="1.066978" stroke-linecap="butt" stroke-linejoin="round" stroke="rgb(92.156863%, 92.156863%, 92.156863%)" stroke-opacity="1" stroke-miterlimit="10" d="M 686.59375 339.589844 L 686.59375 44.105469 "/>
</g>
<g clip-path="url(#clip-34)">
<path fill="none" stroke-width="1.066978" stroke-linecap="butt" stroke-linejoin="round" stroke="rgb(92.156863%, 92.156863%, 92.156863%)" stroke-opacity="1" stroke-miterlimit="10" d="M 729.355469 339.589844 L 729.355469 44.105469 "/>
</g>
<g clip-path="url(#clip-35)">
<path fill="none" stroke-width="1.066978" stroke-linecap="butt" stroke-linejoin="round" stroke="rgb(92.156863%, 92.156863%, 92.156863%)" stroke-opacity="1" stroke-miterlimit="10" d="M 772.117188 339.589844 L 772.117188 44.105469 "/>
</g>
<g clip-path="url(#clip-36)">
<path fill="none" stroke-width="1.066978" stroke-linecap="butt" stroke-linejoin="round" stroke="rgb(92.156863%, 92.156863%, 92.156863%)" stroke-opacity="1" stroke-miterlimit="10" d="M 814.882812 339.589844 L 814.882812 44.105469 "/>
</g>
<g clip-path="url(#clip-37)">
<path fill="none" stroke-width="1.066978" stroke-linecap="butt" stroke-linejoin="round" stroke="rgb(92.156863%, 92.156863%, 92.156863%)" stroke-opacity="1" stroke-miterlimit="10" d="M 857.644531 339.589844 L 857.644531 44.105469 "/>
</g>
<g clip-path="url(#clip-38)">
<path fill="none" stroke-width="1.066978" stroke-linecap="butt" stroke-linejoin="round" stroke="rgb(92.156863%, 92.156863%, 92.156863%)" stroke-opacity="1" stroke-miterlimit="10" d="M 900.40625 339.589844 L 900.40625 44.105469 "/>
</g>
<g clip-path="url(#clip-39)">
<path fill="none" stroke-width="1.066978" stroke-linecap="butt" stroke-linejoin="round" stroke="rgb(92.156863%, 92.156863%, 92.156863%)" stroke-opacity="1" stroke-miterlimit="10" d="M 943.167969 339.589844 L 943.167969 44.105469 "/>
</g>
<g clip-path="url(#clip-40)">
<path fill="none" stroke-width="1.066978" stroke-linecap="butt" stroke-linejoin="round" stroke="rgb(92.156863%, 92.156863%, 92.156863%)" stroke-opacity="1" stroke-miterlimit="10" d="M 985.929688 339.589844 L 985.929688 44.105469 "/>
</g>
<g clip-path="url(#clip-41)">
<path fill="none" stroke-width="1.066978" stroke-linecap="butt" stroke-linejoin="round" stroke="rgb(92.156863%, 92.156863%, 92.156863%)" stroke-opacity="1" stroke-miterlimit="10" d="M 1028.691406 339.589844 L 1028.691406 44.105469 "/>
</g>
<path fill-rule="nonzero" fill="rgb(54.509804%, 0%, 0%)" fill-opacity="1" d="M 539.066406 326.160156 L 577.550781 326.160156 L 577.550781 155.21875 L 539.066406 155.21875 Z M 539.066406 326.160156 "/>
<path fill-rule="nonzero" fill="rgb(54.509804%, 0%, 0%)" fill-opacity="1" d="M 581.828125 326.160156 L 620.3125 326.160156 L 620.3125 155.21875 L 581.828125 155.21875 Z M 581.828125 326.160156 "/>
<path fill-rule="nonzero" fill="rgb(54.509804%, 0%, 0%)" fill-opacity="1" d="M 624.589844 326.160156 L 663.074219 326.160156 L 663.074219 155.21875 L 624.589844 155.21875 Z M 624.589844 326.160156 "/>
<path fill-rule="nonzero" fill="rgb(54.509804%, 0%, 0%)" fill-opacity="1" d="M 667.351562 326.160156 L 705.835938 326.160156 L 705.835938 130.796875 L 667.351562 130.796875 Z M 667.351562 326.160156 "/>
<path fill-rule="nonzero" fill="rgb(54.509804%, 0%, 0%)" fill-opacity="1" d="M 710.113281 326.160156 L 748.597656 326.160156 L 748.597656 236.617188 L 710.113281 236.617188 Z M 710.113281 326.160156 "/>
<path fill-rule="nonzero" fill="rgb(54.509804%, 0%, 0%)" fill-opacity="1" d="M 752.875 326.160156 L 791.359375 326.160156 L 791.359375 236.617188 L 752.875 236.617188 Z M 752.875 326.160156 "/>
<path fill-rule="nonzero" fill="rgb(54.509804%, 0%, 0%)" fill-opacity="1" d="M 795.636719 326.160156 L 834.121094 326.160156 L 834.121094 191.847656 L 795.636719 191.847656 Z M 795.636719 326.160156 "/>
<path fill-rule="nonzero" fill="rgb(54.509804%, 0%, 0%)" fill-opacity="1" d="M 838.398438 326.160156 L 876.882812 326.160156 L 876.882812 236.617188 L 838.398438 236.617188 Z M 838.398438 326.160156 "/>
<path fill-rule="nonzero" fill="rgb(54.509804%, 0%, 0%)" fill-opacity="1" d="M 881.160156 326.160156 L 919.644531 326.160156 L 919.644531 236.617188 L 881.160156 236.617188 Z M 881.160156 326.160156 "/>
<path fill-rule="nonzero" fill="rgb(54.509804%, 0%, 0%)" fill-opacity="1" d="M 923.921875 326.160156 L 962.40625 326.160156 L 962.40625 236.617188 L 923.921875 236.617188 Z M 923.921875 326.160156 "/>
<path fill-rule="nonzero" fill="rgb(54.509804%, 0%, 0%)" fill-opacity="1" d="M 966.683594 326.160156 L 1005.167969 326.160156 L 1005.167969 236.617188 L 966.683594 236.617188 Z M 966.683594 326.160156 "/>
<path fill-rule="nonzero" fill="rgb(54.509804%, 0%, 0%)" fill-opacity="1" d="M 1009.445312 326.160156 L 1047.929688 326.160156 L 1047.929688 218.710938 L 1009.445312 218.710938 Z M 1009.445312 326.160156 "/>
<g clip-path="url(#clip-42)">
<path fill="none" stroke-width="0.533489" stroke-linecap="butt" stroke-linejoin="round" stroke="rgb(92.156863%, 92.156863%, 92.156863%)" stroke-opacity="1" stroke-miterlimit="10" d="M 1059.828125 292.582031 L 1581.519531 292.582031 "/>
</g>
<g clip-path="url(#clip-43)">
<path fill="none" stroke-width="0.533489" stroke-linecap="butt" stroke-linejoin="round" stroke="rgb(92.156863%, 92.156863%, 92.156863%)" stroke-opacity="1" stroke-miterlimit="10" d="M 1059.828125 225.425781 L 1581.519531 225.425781 "/>
</g>
<g clip-path="url(#clip-44)">
<path fill="none" stroke-width="0.533489" stroke-linecap="butt" stroke-linejoin="round" stroke="rgb(92.156863%, 92.156863%, 92.156863%)" stroke-opacity="1" stroke-miterlimit="10" d="M 1059.828125 158.269531 L 1581.519531 158.269531 "/>
</g>
<g clip-path="url(#clip-45)">
<path fill="none" stroke-width="0.533489" stroke-linecap="butt" stroke-linejoin="round" stroke="rgb(92.156863%, 92.156863%, 92.156863%)" stroke-opacity="1" stroke-miterlimit="10" d="M 1059.828125 91.113281 L 1581.519531 91.113281 "/>
</g>
<g clip-path="url(#clip-46)">
<path fill="none" stroke-width="1.066978" stroke-linecap="butt" stroke-linejoin="round" stroke="rgb(92.156863%, 92.156863%, 92.156863%)" stroke-opacity="1" stroke-miterlimit="10" d="M 1059.828125 326.160156 L 1581.519531 326.160156 "/>
</g>
<g clip-path="url(#clip-47)">
<path fill="none" stroke-width="1.066978" stroke-linecap="butt" stroke-linejoin="round" stroke="rgb(92.156863%, 92.156863%, 92.156863%)" stroke-opacity="1" stroke-miterlimit="10" d="M 1059.828125 259.003906 L 1581.519531 259.003906 "/>
</g>
<g clip-path="url(#clip-48)">
<path fill="none" stroke-width="1.066978" stroke-linecap="butt" stroke-linejoin="round" stroke="rgb(92.156863%, 92.156863%, 92.156863%)" stroke-opacity="1" stroke-miterlimit="10" d="M 1059.828125 191.847656 L 1581.519531 191.847656 "/>
</g>
<g clip-path="url(#clip-49)">
<path fill="none" stroke-width="1.066978" stroke-linecap="butt" stroke-linejoin="round" stroke="rgb(92.156863%, 92.156863%, 92.156863%)" stroke-opacity="1" stroke-miterlimit="10" d="M 1059.828125 124.691406 L 1581.519531 124.691406 "/>
</g>
<g clip-path="url(#clip-50)">
<path fill="none" stroke-width="1.066978" stroke-linecap="butt" stroke-linejoin="round" stroke="rgb(92.156863%, 92.156863%, 92.156863%)" stroke-opacity="1" stroke-miterlimit="10" d="M 1059.828125 57.535156 L 1581.519531 57.535156 "/>
</g>
<g clip-path="url(#clip-51)">
<path fill="none" stroke-width="1.066978" stroke-linecap="butt" stroke-linejoin="round" stroke="rgb(92.156863%, 92.156863%, 92.156863%)" stroke-opacity="1" stroke-miterlimit="10" d="M 1085.484375 339.589844 L 1085.484375 44.105469 "/>
</g>
<g clip-path="url(#clip-52)">
<path fill="none" stroke-width="1.066978" stroke-linecap="butt" stroke-linejoin="round" stroke="rgb(92.156863%, 92.156863%, 92.156863%)" stroke-opacity="1" stroke-miterlimit="10" d="M 1128.246094 339.589844 L 1128.246094 44.105469 "/>
</g>
<g clip-path="url(#clip-53)">
<path fill="none" stroke-width="1.066978" stroke-linecap="butt" stroke-linejoin="round" stroke="rgb(92.156863%, 92.156863%, 92.156863%)" stroke-opacity="1" stroke-miterlimit="10" d="M 1171.007812 339.589844 L 1171.007812 44.105469 "/>
</g>
<g clip-path="url(#clip-54)">
<path fill="none" stroke-width="1.066978" stroke-linecap="butt" stroke-linejoin="round" stroke="rgb(92.156863%, 92.156863%, 92.156863%)" stroke-opacity="1" stroke-miterlimit="10" d="M 1213.769531 339.589844 L 1213.769531 44.105469 "/>
</g>
<g clip-path="url(#clip-55)">
<path fill="none" stroke-width="1.066978" stroke-linecap="butt" stroke-linejoin="round" stroke="rgb(92.156863%, 92.156863%, 92.156863%)" stroke-opacity="1" stroke-miterlimit="10" d="M 1256.53125 339.589844 L 1256.53125 44.105469 "/>
</g>
<g clip-path="url(#clip-56)">
<path fill="none" stroke-width="1.066978" stroke-linecap="butt" stroke-linejoin="round" stroke="rgb(92.156863%, 92.156863%, 92.156863%)" stroke-opacity="1" stroke-miterlimit="10" d="M 1299.292969 339.589844 L 1299.292969 44.105469 "/>
</g>
<g clip-path="url(#clip-57)">
<path fill="none" stroke-width="1.066978" stroke-linecap="butt" stroke-linejoin="round" stroke="rgb(92.156863%, 92.156863%, 92.156863%)" stroke-opacity="1" stroke-miterlimit="10" d="M 1342.054688 339.589844 L 1342.054688 44.105469 "/>
</g>
<g clip-path="url(#clip-58)">
<path fill="none" stroke-width="1.066978" stroke-linecap="butt" stroke-linejoin="round" stroke="rgb(92.156863%, 92.156863%, 92.156863%)" stroke-opacity="1" stroke-miterlimit="10" d="M 1384.816406 339.589844 L 1384.816406 44.105469 "/>
</g>
<g clip-path="url(#clip-59)">
<path fill="none" stroke-width="1.066978" stroke-linecap="butt" stroke-linejoin="round" stroke="rgb(92.156863%, 92.156863%, 92.156863%)" stroke-opacity="1" stroke-miterlimit="10" d="M 1427.578125 339.589844 L 1427.578125 44.105469 "/>
</g>
<g clip-path="url(#clip-60)">
<path fill="none" stroke-width="1.066978" stroke-linecap="butt" stroke-linejoin="round" stroke="rgb(92.156863%, 92.156863%, 92.156863%)" stroke-opacity="1" stroke-miterlimit="10" d="M 1470.339844 339.589844 L 1470.339844 44.105469 "/>
</g>
<g clip-path="url(#clip-61)">
<path fill="none" stroke-width="1.066978" stroke-linecap="butt" stroke-linejoin="round" stroke="rgb(92.156863%, 92.156863%, 92.156863%)" stroke-opacity="1" stroke-miterlimit="10" d="M 1513.101562 339.589844 L 1513.101562 44.105469 "/>
</g>
<g clip-path="url(#clip-62)">
<path fill="none" stroke-width="1.066978" stroke-linecap="butt" stroke-linejoin="round" stroke="rgb(92.156863%, 92.156863%, 92.156863%)" stroke-opacity="1" stroke-miterlimit="10" d="M 1555.863281 339.589844 L 1555.863281 44.105469 "/>
</g>
<path fill-rule="nonzero" fill="rgb(0%, 0%, 54.509804%)" fill-opacity="1" d="M 1066.242188 326.160156 L 1104.726562 326.160156 L 1104.726562 204.058594 L 1066.242188 204.058594 Z M 1066.242188 326.160156 "/>
<path fill-rule="nonzero" fill="rgb(0%, 0%, 54.509804%)" fill-opacity="1" d="M 1109.003906 326.160156 L 1147.488281 326.160156 L 1147.488281 228.480469 L 1109.003906 228.480469 Z M 1109.003906 326.160156 "/>
<path fill-rule="nonzero" fill="rgb(0%, 0%, 54.509804%)" fill-opacity="1" d="M 1151.765625 326.160156 L 1190.25 326.160156 L 1190.25 228.480469 L 1151.765625 228.480469 Z M 1151.765625 326.160156 "/>
<path fill-rule="nonzero" fill="rgb(0%, 0%, 54.509804%)" fill-opacity="1" d="M 1194.527344 326.160156 L 1233.011719 326.160156 L 1233.011719 204.058594 L 1194.527344 204.058594 Z M 1194.527344 326.160156 "/>
<path fill-rule="nonzero" fill="rgb(0%, 0%, 54.509804%)" fill-opacity="1" d="M 1237.289062 326.160156 L 1275.773438 326.160156 L 1275.773438 236.617188 L 1237.289062 236.617188 Z M 1237.289062 326.160156 "/>
<path fill-rule="nonzero" fill="rgb(0%, 0%, 54.509804%)" fill-opacity="1" d="M 1280.050781 326.160156 L 1318.535156 326.160156 L 1318.535156 236.617188 L 1280.050781 236.617188 Z M 1280.050781 326.160156 "/>
<path fill-rule="nonzero" fill="rgb(0%, 0%, 54.509804%)" fill-opacity="1" d="M 1322.8125 326.160156 L 1361.296875 326.160156 L 1361.296875 191.847656 L 1322.8125 191.847656 Z M 1322.8125 326.160156 "/>
<path fill-rule="nonzero" fill="rgb(0%, 0%, 54.509804%)" fill-opacity="1" d="M 1365.574219 326.160156 L 1404.058594 326.160156 L 1404.058594 236.617188 L 1365.574219 236.617188 Z M 1365.574219 326.160156 "/>
<path fill-rule="nonzero" fill="rgb(0%, 0%, 54.509804%)" fill-opacity="1" d="M 1408.335938 326.160156 L 1446.820312 326.160156 L 1446.820312 236.617188 L 1408.335938 236.617188 Z M 1408.335938 326.160156 "/>
<path fill-rule="nonzero" fill="rgb(0%, 0%, 54.509804%)" fill-opacity="1" d="M 1451.097656 326.160156 L 1489.582031 326.160156 L 1489.582031 236.617188 L 1451.097656 236.617188 Z M 1451.097656 326.160156 "/>
<path fill-rule="nonzero" fill="rgb(0%, 0%, 54.509804%)" fill-opacity="1" d="M 1493.859375 326.160156 L 1532.34375 326.160156 L 1532.34375 236.617188 L 1493.859375 236.617188 Z M 1493.859375 326.160156 "/>
<path fill-rule="nonzero" fill="rgb(0%, 0%, 54.509804%)" fill-opacity="1" d="M 1536.621094 326.160156 L 1575.105469 326.160156 L 1575.105469 272.433594 L 1536.621094 272.433594 Z M 1536.621094 326.160156 "/>
<g fill="rgb(10.196078%, 10.196078%, 10.196078%)" fill-opacity="1">
<use xlink:href="#glyph-0-0" x="252.871094" y="38.292969"/>
<use xlink:href="#glyph-0-1" x="257.765234" y="38.292969"/>
<use xlink:href="#glyph-0-2" x="260.210156" y="38.292969"/>
<use xlink:href="#glyph-0-3" x="265.104297" y="38.292969"/>
<use xlink:href="#glyph-0-3" x="269.998437" y="38.292969"/>
<use xlink:href="#glyph-0-4" x="274.892578" y="38.292969"/>
</g>
<g fill="rgb(10.196078%, 10.196078%, 10.196078%)" fill-opacity="1">
<use xlink:href="#glyph-0-0" x="780.042969" y="38.292969"/>
<use xlink:href="#glyph-0-1" x="784.937109" y="38.292969"/>
<use xlink:href="#glyph-0-2" x="787.382031" y="38.292969"/>
<use xlink:href="#glyph-0-3" x="792.276172" y="38.292969"/>
<use xlink:href="#glyph-0-3" x="797.170312" y="38.292969"/>
<use xlink:href="#glyph-0-5" x="802.064453" y="38.292969"/>
</g>
<g fill="rgb(10.196078%, 10.196078%, 10.196078%)" fill-opacity="1">
<use xlink:href="#glyph-0-0" x="1307.214844" y="38.292969"/>
<use xlink:href="#glyph-0-1" x="1312.108984" y="38.292969"/>
<use xlink:href="#glyph-0-2" x="1314.553906" y="38.292969"/>
<use xlink:href="#glyph-0-3" x="1319.448047" y="38.292969"/>
<use xlink:href="#glyph-0-3" x="1324.342188" y="38.292969"/>
<use xlink:href="#glyph-0-6" x="1329.236328" y="38.292969"/>
</g>
<g fill="rgb(30.196078%, 30.196078%, 30.196078%)" fill-opacity="1">
<use xlink:href="#glyph-1-0" x="19.222656" y="367.972656"/>
<use xlink:href="#glyph-1-1" x="21.187225" y="366.008087"/>
<use xlink:href="#glyph-1-2" x="23.541946" y="363.653366"/>
<use xlink:href="#glyph-1-0" x="27.07748" y="360.117832"/>
<use xlink:href="#glyph-1-3" x="29.042049" y="358.153263"/>
<use xlink:href="#glyph-1-4" x="32.97464" y="354.220672"/>
</g>
<g fill="rgb(30.196078%, 30.196078%, 30.196078%)" fill-opacity="1">
<use xlink:href="#glyph-1-5" x="60.414062" y="369.542969"/>
<use xlink:href="#glyph-1-5" x="64.346653" y="365.610378"/>
<use xlink:href="#glyph-1-6" x="68.279244" y="361.677787"/>
<use xlink:href="#glyph-1-0" x="69.850209" y="360.106822"/>
<use xlink:href="#glyph-1-1" x="71.814778" y="358.142253"/>
<use xlink:href="#glyph-1-2" x="74.169499" y="355.787532"/>
<use xlink:href="#glyph-1-0" x="77.705033" y="352.251998"/>
</g>
<g fill="rgb(30.196078%, 30.196078%, 30.196078%)" fill-opacity="1">
<use xlink:href="#glyph-1-5" x="103.558594" y="369.160156"/>
<use xlink:href="#glyph-1-5" x="107.491185" y="365.227565"/>
<use xlink:href="#glyph-1-6" x="111.423776" y="361.294974"/>
<use xlink:href="#glyph-1-7" x="112.99474" y="359.72401"/>
<use xlink:href="#glyph-1-6" x="116.927331" y="355.791419"/>
<use xlink:href="#glyph-1-5" x="118.498296" y="354.220454"/>
</g>
<g fill="rgb(30.196078%, 30.196078%, 30.196078%)" fill-opacity="1">
<use xlink:href="#glyph-1-5" x="145.933594" y="369.546875"/>
<use xlink:href="#glyph-1-5" x="149.866185" y="365.614284"/>
<use xlink:href="#glyph-1-6" x="153.798776" y="361.681693"/>
<use xlink:href="#glyph-1-8" x="155.36974" y="360.110728"/>
<use xlink:href="#glyph-1-9" x="157.33431" y="358.146159"/>
<use xlink:href="#glyph-1-10" x="161.2669" y="354.213568"/>
<use xlink:href="#glyph-1-1" x="162.837865" y="352.642604"/>
</g>
<g fill="rgb(30.196078%, 30.196078%, 30.196078%)" fill-opacity="1">
<use xlink:href="#glyph-1-10" x="187.125" y="371.117188"/>
<use xlink:href="#glyph-1-5" x="188.695965" y="369.546223"/>
<use xlink:href="#glyph-1-2" x="192.628556" y="365.613632"/>
<use xlink:href="#glyph-1-0" x="196.16409" y="362.078098"/>
<use xlink:href="#glyph-1-1" x="198.128659" y="360.113529"/>
<use xlink:href="#glyph-1-11" x="200.48338" y="357.758808"/>
<use xlink:href="#glyph-1-12" x="204.415971" y="353.826217"/>
</g>
<g fill="rgb(30.196078%, 30.196078%, 30.196078%)" fill-opacity="1">
<use xlink:href="#glyph-1-10" x="230.273437" y="370.730469"/>
<use xlink:href="#glyph-1-5" x="231.844402" y="369.159504"/>
<use xlink:href="#glyph-1-7" x="235.776993" y="365.226913"/>
<use xlink:href="#glyph-1-6" x="239.709584" y="361.294322"/>
<use xlink:href="#glyph-1-5" x="241.280549" y="359.723357"/>
<use xlink:href="#glyph-1-5" x="245.21314" y="355.790766"/>
<use xlink:href="#glyph-1-6" x="249.145731" y="351.858175"/>
</g>
<g fill="rgb(30.196078%, 30.196078%, 30.196078%)" fill-opacity="1">
<use xlink:href="#glyph-1-10" x="274.21875" y="369.546875"/>
<use xlink:href="#glyph-1-5" x="275.789715" y="367.97591"/>
<use xlink:href="#glyph-1-8" x="279.722306" y="364.043319"/>
<use xlink:href="#glyph-1-1" x="281.686875" y="362.07875"/>
<use xlink:href="#glyph-1-3" x="284.041596" y="359.724029"/>
<use xlink:href="#glyph-1-6" x="287.974187" y="355.791438"/>
<use xlink:href="#glyph-1-13" x="289.545151" y="354.220474"/>
</g>
<g fill="rgb(30.196078%, 30.196078%, 30.196078%)" fill-opacity="1">
<use xlink:href="#glyph-1-10" x="312.648438" y="373.878906"/>
<use xlink:href="#glyph-1-5" x="314.219402" y="372.307941"/>
<use xlink:href="#glyph-1-14" x="318.151993" y="368.375351"/>
<use xlink:href="#glyph-1-7" x="322.084584" y="364.44276"/>
<use xlink:href="#glyph-1-5" x="326.017175" y="360.510169"/>
<use xlink:href="#glyph-1-1" x="329.949766" y="356.577578"/>
<use xlink:href="#glyph-1-5" x="332.304487" y="354.222857"/>
</g>
<g fill="rgb(30.196078%, 30.196078%, 30.196078%)" fill-opacity="1">
<use xlink:href="#glyph-1-10" x="355.421875" y="373.867187"/>
<use xlink:href="#glyph-1-15" x="356.99284" y="372.296223"/>
<use xlink:href="#glyph-1-5" x="362.883095" y="366.405968"/>
<use xlink:href="#glyph-1-0" x="366.815685" y="362.473377"/>
<use xlink:href="#glyph-1-1" x="368.780255" y="360.508808"/>
<use xlink:href="#glyph-1-9" x="371.134975" y="358.154087"/>
<use xlink:href="#glyph-1-16" x="375.067566" y="354.221496"/>
</g>
<g fill="rgb(30.196078%, 30.196078%, 30.196078%)" fill-opacity="1">
<use xlink:href="#glyph-1-10" x="398.183594" y="373.867188"/>
<use xlink:href="#glyph-1-15" x="399.754559" y="372.296223"/>
<use xlink:href="#glyph-1-5" x="405.644813" y="366.405968"/>
<use xlink:href="#glyph-1-8" x="409.577404" y="362.473377"/>
<use xlink:href="#glyph-1-1" x="411.541973" y="360.508808"/>
<use xlink:href="#glyph-1-13" x="413.896694" y="358.154087"/>
<use xlink:href="#glyph-1-13" x="417.829285" y="354.221496"/>
</g>
<g fill="rgb(30.196078%, 30.196078%, 30.196078%)" fill-opacity="1">
<use xlink:href="#glyph-1-10" x="441.730469" y="373.082031"/>
<use xlink:href="#glyph-1-15" x="443.301434" y="371.511066"/>
<use xlink:href="#glyph-1-5" x="449.191688" y="365.620812"/>
<use xlink:href="#glyph-1-13" x="453.124279" y="361.688221"/>
<use xlink:href="#glyph-1-4" x="457.05687" y="357.75563"/>
<use xlink:href="#glyph-1-12" x="460.989461" y="353.823039"/>
</g>
<g fill="rgb(30.196078%, 30.196078%, 30.196078%)" fill-opacity="1">
<use xlink:href="#glyph-1-11" x="486.84375" y="370.730469"/>
<use xlink:href="#glyph-1-10" x="490.776341" y="366.797878"/>
<use xlink:href="#glyph-1-4" x="492.347306" y="365.226913"/>
<use xlink:href="#glyph-1-17" x="496.279897" y="361.294322"/>
<use xlink:href="#glyph-1-16" x="499.815431" y="357.758788"/>
<use xlink:href="#glyph-1-10" x="503.748021" y="353.826197"/>
<use xlink:href="#glyph-1-8" x="505.318986" y="352.255232"/>
</g>
<g fill="rgb(30.196078%, 30.196078%, 30.196078%)" fill-opacity="1">
<use xlink:href="#glyph-1-0" x="546.394531" y="367.972656"/>
<use xlink:href="#glyph-1-1" x="548.3591" y="366.008087"/>
<use xlink:href="#glyph-1-2" x="550.713821" y="363.653366"/>
<use xlink:href="#glyph-1-0" x="554.249355" y="360.117832"/>
<use xlink:href="#glyph-1-3" x="556.213924" y="358.153263"/>
<use xlink:href="#glyph-1-4" x="560.146515" y="354.220672"/>
</g>
<g fill="rgb(30.196078%, 30.196078%, 30.196078%)" fill-opacity="1">
<use xlink:href="#glyph-1-5" x="587.585938" y="369.542969"/>
<use xlink:href="#glyph-1-5" x="591.518528" y="365.610378"/>
<use xlink:href="#glyph-1-6" x="595.451119" y="361.677787"/>
<use xlink:href="#glyph-1-0" x="597.022084" y="360.106822"/>
<use xlink:href="#glyph-1-1" x="598.986653" y="358.142253"/>
<use xlink:href="#glyph-1-2" x="601.341374" y="355.787532"/>
<use xlink:href="#glyph-1-0" x="604.876908" y="352.251998"/>
</g>
<g fill="rgb(30.196078%, 30.196078%, 30.196078%)" fill-opacity="1">
<use xlink:href="#glyph-1-5" x="630.730469" y="369.160156"/>
<use xlink:href="#glyph-1-5" x="634.66306" y="365.227565"/>
<use xlink:href="#glyph-1-6" x="638.595651" y="361.294974"/>
<use xlink:href="#glyph-1-7" x="640.166615" y="359.72401"/>
<use xlink:href="#glyph-1-6" x="644.099206" y="355.791419"/>
<use xlink:href="#glyph-1-5" x="645.670171" y="354.220454"/>
</g>
<g fill="rgb(30.196078%, 30.196078%, 30.196078%)" fill-opacity="1">
<use xlink:href="#glyph-1-5" x="673.105469" y="369.546875"/>
<use xlink:href="#glyph-1-5" x="677.03806" y="365.614284"/>
<use xlink:href="#glyph-1-6" x="680.970651" y="361.681693"/>
<use xlink:href="#glyph-1-8" x="682.541615" y="360.110728"/>
<use xlink:href="#glyph-1-9" x="684.506185" y="358.146159"/>
<use xlink:href="#glyph-1-10" x="688.438775" y="354.213568"/>
<use xlink:href="#glyph-1-1" x="690.00974" y="352.642604"/>
</g>
<g fill="rgb(30.196078%, 30.196078%, 30.196078%)" fill-opacity="1">
<use xlink:href="#glyph-1-10" x="714.296875" y="371.117188"/>
<use xlink:href="#glyph-1-5" x="715.86784" y="369.546223"/>
<use xlink:href="#glyph-1-2" x="719.800431" y="365.613632"/>
<use xlink:href="#glyph-1-0" x="723.335965" y="362.078098"/>
<use xlink:href="#glyph-1-1" x="725.300534" y="360.113529"/>
<use xlink:href="#glyph-1-11" x="727.655255" y="357.758808"/>
<use xlink:href="#glyph-1-12" x="731.587846" y="353.826217"/>
</g>
<g fill="rgb(30.196078%, 30.196078%, 30.196078%)" fill-opacity="1">
<use xlink:href="#glyph-1-10" x="757.445312" y="370.730469"/>
<use xlink:href="#glyph-1-5" x="759.016277" y="369.159504"/>
<use xlink:href="#glyph-1-7" x="762.948868" y="365.226913"/>
<use xlink:href="#glyph-1-6" x="766.881459" y="361.294322"/>
<use xlink:href="#glyph-1-5" x="768.452424" y="359.723357"/>
<use xlink:href="#glyph-1-5" x="772.385015" y="355.790766"/>
<use xlink:href="#glyph-1-6" x="776.317606" y="351.858175"/>
</g>
<g fill="rgb(30.196078%, 30.196078%, 30.196078%)" fill-opacity="1">
<use xlink:href="#glyph-1-10" x="801.390625" y="369.546875"/>
<use xlink:href="#glyph-1-5" x="802.96159" y="367.97591"/>
<use xlink:href="#glyph-1-8" x="806.894181" y="364.043319"/>
<use xlink:href="#glyph-1-1" x="808.85875" y="362.07875"/>
<use xlink:href="#glyph-1-3" x="811.213471" y="359.724029"/>
<use xlink:href="#glyph-1-6" x="815.146062" y="355.791438"/>
<use xlink:href="#glyph-1-13" x="816.717026" y="354.220474"/>
</g>
<g fill="rgb(30.196078%, 30.196078%, 30.196078%)" fill-opacity="1">
<use xlink:href="#glyph-1-10" x="839.820312" y="373.878906"/>
<use xlink:href="#glyph-1-5" x="841.391277" y="372.307941"/>
<use xlink:href="#glyph-1-14" x="845.323868" y="368.375351"/>
<use xlink:href="#glyph-1-7" x="849.256459" y="364.44276"/>
<use xlink:href="#glyph-1-5" x="853.18905" y="360.510169"/>
<use xlink:href="#glyph-1-1" x="857.121641" y="356.577578"/>
<use xlink:href="#glyph-1-5" x="859.476362" y="354.222857"/>
</g>
<g fill="rgb(30.196078%, 30.196078%, 30.196078%)" fill-opacity="1">
<use xlink:href="#glyph-1-10" x="882.59375" y="373.867188"/>
<use xlink:href="#glyph-1-15" x="884.164715" y="372.296223"/>
<use xlink:href="#glyph-1-5" x="890.05497" y="366.405968"/>
<use xlink:href="#glyph-1-0" x="893.98756" y="362.473377"/>
<use xlink:href="#glyph-1-1" x="895.95213" y="360.508808"/>
<use xlink:href="#glyph-1-9" x="898.30685" y="358.154087"/>
<use xlink:href="#glyph-1-16" x="902.239441" y="354.221496"/>
</g>
<g fill="rgb(30.196078%, 30.196078%, 30.196078%)" fill-opacity="1">
<use xlink:href="#glyph-1-10" x="925.355469" y="373.867188"/>
<use xlink:href="#glyph-1-15" x="926.926434" y="372.296223"/>
<use xlink:href="#glyph-1-5" x="932.816688" y="366.405968"/>
<use xlink:href="#glyph-1-8" x="936.749279" y="362.473377"/>
<use xlink:href="#glyph-1-1" x="938.713848" y="360.508808"/>
<use xlink:href="#glyph-1-13" x="941.068569" y="358.154087"/>
<use xlink:href="#glyph-1-13" x="945.00116" y="354.221496"/>
</g>
<g fill="rgb(30.196078%, 30.196078%, 30.196078%)" fill-opacity="1">
<use xlink:href="#glyph-1-10" x="968.902344" y="373.082031"/>
<use xlink:href="#glyph-1-15" x="970.473309" y="371.511066"/>
<use xlink:href="#glyph-1-5" x="976.363563" y="365.620812"/>
<use xlink:href="#glyph-1-13" x="980.296154" y="361.688221"/>
<use xlink:href="#glyph-1-4" x="984.228745" y="357.75563"/>
<use xlink:href="#glyph-1-12" x="988.161336" y="353.823039"/>
</g>
<g fill="rgb(30.196078%, 30.196078%, 30.196078%)" fill-opacity="1">
<use xlink:href="#glyph-1-11" x="1014.015625" y="370.730469"/>
<use xlink:href="#glyph-1-10" x="1017.948216" y="366.797878"/>
<use xlink:href="#glyph-1-4" x="1019.519181" y="365.226913"/>
<use xlink:href="#glyph-1-17" x="1023.451772" y="361.294322"/>
<use xlink:href="#glyph-1-16" x="1026.987306" y="357.758788"/>
<use xlink:href="#glyph-1-10" x="1030.919896" y="353.826197"/>
<use xlink:href="#glyph-1-8" x="1032.490861" y="352.255232"/>
</g>
<g fill="rgb(30.196078%, 30.196078%, 30.196078%)" fill-opacity="1">
<use xlink:href="#glyph-1-0" x="1073.570312" y="367.972656"/>
<use xlink:href="#glyph-1-1" x="1075.534882" y="366.008087"/>
<use xlink:href="#glyph-1-2" x="1077.889602" y="363.653366"/>
<use xlink:href="#glyph-1-0" x="1081.425136" y="360.117832"/>
<use xlink:href="#glyph-1-3" x="1083.389705" y="358.153263"/>
<use xlink:href="#glyph-1-4" x="1087.322296" y="354.220672"/>
</g>
<g fill="rgb(30.196078%, 30.196078%, 30.196078%)" fill-opacity="1">
<use xlink:href="#glyph-1-5" x="1114.761719" y="369.542969"/>
<use xlink:href="#glyph-1-5" x="1118.69431" y="365.610378"/>
<use xlink:href="#glyph-1-6" x="1122.626901" y="361.677787"/>
<use xlink:href="#glyph-1-0" x="1124.197865" y="360.106822"/>
<use xlink:href="#glyph-1-1" x="1126.162435" y="358.142253"/>
<use xlink:href="#glyph-1-2" x="1128.517155" y="355.787532"/>
<use xlink:href="#glyph-1-0" x="1132.052689" y="352.251998"/>
</g>
<g fill="rgb(30.196078%, 30.196078%, 30.196078%)" fill-opacity="1">
<use xlink:href="#glyph-1-5" x="1157.90625" y="369.160156"/>
<use xlink:href="#glyph-1-5" x="1161.838841" y="365.227565"/>
<use xlink:href="#glyph-1-6" x="1165.771432" y="361.294974"/>
<use xlink:href="#glyph-1-7" x="1167.342397" y="359.72401"/>
<use xlink:href="#glyph-1-6" x="1171.274988" y="355.791419"/>
<use xlink:href="#glyph-1-5" x="1172.845952" y="354.220454"/>
</g>
<g fill="rgb(30.196078%, 30.196078%, 30.196078%)" fill-opacity="1">
<use xlink:href="#glyph-1-5" x="1200.28125" y="369.546875"/>
<use xlink:href="#glyph-1-5" x="1204.213841" y="365.614284"/>
<use xlink:href="#glyph-1-6" x="1208.146432" y="361.681693"/>
<use xlink:href="#glyph-1-8" x="1209.717397" y="360.110728"/>
<use xlink:href="#glyph-1-9" x="1211.681966" y="358.146159"/>
<use xlink:href="#glyph-1-10" x="1215.614557" y="354.213568"/>
<use xlink:href="#glyph-1-1" x="1217.185521" y="352.642604"/>
</g>
<g fill="rgb(30.196078%, 30.196078%, 30.196078%)" fill-opacity="1">
<use xlink:href="#glyph-1-10" x="1241.472656" y="371.117187"/>
<use xlink:href="#glyph-1-5" x="1243.043621" y="369.546223"/>
<use xlink:href="#glyph-1-2" x="1246.976212" y="365.613632"/>
<use xlink:href="#glyph-1-0" x="1250.511746" y="362.078098"/>
<use xlink:href="#glyph-1-1" x="1252.476315" y="360.113529"/>
<use xlink:href="#glyph-1-11" x="1254.831036" y="357.758808"/>
<use xlink:href="#glyph-1-12" x="1258.763627" y="353.826217"/>
</g>
<g fill="rgb(30.196078%, 30.196078%, 30.196078%)" fill-opacity="1">
<use xlink:href="#glyph-1-10" x="1284.621094" y="370.730469"/>
<use xlink:href="#glyph-1-5" x="1286.192059" y="369.159504"/>
<use xlink:href="#glyph-1-7" x="1290.124649" y="365.226913"/>
<use xlink:href="#glyph-1-6" x="1294.05724" y="361.294322"/>
<use xlink:href="#glyph-1-5" x="1295.628205" y="359.723357"/>
<use xlink:href="#glyph-1-5" x="1299.560796" y="355.790766"/>
<use xlink:href="#glyph-1-6" x="1303.493387" y="351.858175"/>
</g>
<g fill="rgb(30.196078%, 30.196078%, 30.196078%)" fill-opacity="1">
<use xlink:href="#glyph-1-10" x="1328.566406" y="369.546875"/>
<use xlink:href="#glyph-1-5" x="1330.137371" y="367.97591"/>
<use xlink:href="#glyph-1-8" x="1334.069962" y="364.043319"/>
<use xlink:href="#glyph-1-1" x="1336.034531" y="362.07875"/>
<use xlink:href="#glyph-1-3" x="1338.389252" y="359.724029"/>
<use xlink:href="#glyph-1-6" x="1342.321843" y="355.791438"/>
<use xlink:href="#glyph-1-13" x="1343.892808" y="354.220474"/>
</g>
<g fill="rgb(30.196078%, 30.196078%, 30.196078%)" fill-opacity="1">
<use xlink:href="#glyph-1-10" x="1366.996094" y="373.878906"/>
<use xlink:href="#glyph-1-5" x="1368.567059" y="372.307941"/>
<use xlink:href="#glyph-1-14" x="1372.499649" y="368.375351"/>
<use xlink:href="#glyph-1-7" x="1376.43224" y="364.44276"/>
<use xlink:href="#glyph-1-5" x="1380.364831" y="360.510169"/>
<use xlink:href="#glyph-1-1" x="1384.297422" y="356.577578"/>
<use xlink:href="#glyph-1-5" x="1386.652143" y="354.222857"/>
</g>
<g fill="rgb(30.196078%, 30.196078%, 30.196078%)" fill-opacity="1">
<use xlink:href="#glyph-1-10" x="1409.769531" y="373.867188"/>
<use xlink:href="#glyph-1-15" x="1411.340496" y="372.296223"/>
<use xlink:href="#glyph-1-5" x="1417.230751" y="366.405968"/>
<use xlink:href="#glyph-1-0" x="1421.163342" y="362.473377"/>
<use xlink:href="#glyph-1-1" x="1423.127911" y="360.508808"/>
<use xlink:href="#glyph-1-9" x="1425.482632" y="358.154087"/>
<use xlink:href="#glyph-1-16" x="1429.415223" y="354.221496"/>
</g>
<g fill="rgb(30.196078%, 30.196078%, 30.196078%)" fill-opacity="1">
<use xlink:href="#glyph-1-10" x="1452.53125" y="373.867188"/>
<use xlink:href="#glyph-1-15" x="1454.102215" y="372.296223"/>
<use xlink:href="#glyph-1-5" x="1459.99247" y="366.405968"/>
<use xlink:href="#glyph-1-8" x="1463.92506" y="362.473377"/>
<use xlink:href="#glyph-1-1" x="1465.88963" y="360.508808"/>
<use xlink:href="#glyph-1-13" x="1468.24435" y="358.154087"/>
<use xlink:href="#glyph-1-13" x="1472.176941" y="354.221496"/>
</g>
<g fill="rgb(30.196078%, 30.196078%, 30.196078%)" fill-opacity="1">
<use xlink:href="#glyph-1-10" x="1496.078125" y="373.082031"/>
<use xlink:href="#glyph-1-15" x="1497.64909" y="371.511066"/>
<use xlink:href="#glyph-1-5" x="1503.539345" y="365.620812"/>
<use xlink:href="#glyph-1-13" x="1507.471935" y="361.688221"/>
<use xlink:href="#glyph-1-4" x="1511.404526" y="357.75563"/>
<use xlink:href="#glyph-1-12" x="1515.337117" y="353.823039"/>
</g>
<g fill="rgb(30.196078%, 30.196078%, 30.196078%)" fill-opacity="1">
<use xlink:href="#glyph-1-11" x="1541.191406" y="370.730469"/>
<use xlink:href="#glyph-1-10" x="1545.123997" y="366.797878"/>
<use xlink:href="#glyph-1-4" x="1546.694962" y="365.226913"/>
<use xlink:href="#glyph-1-17" x="1550.627553" y="361.294322"/>
<use xlink:href="#glyph-1-16" x="1554.163087" y="357.758788"/>
<use xlink:href="#glyph-1-10" x="1558.095678" y="353.826197"/>
<use xlink:href="#glyph-1-8" x="1559.666643" y="352.255232"/>
</g>
<g fill="rgb(0%, 0%, 0%)" fill-opacity="1">
<use xlink:href="#glyph-2-0" x="5.480469" y="15.929688"/>
<use xlink:href="#glyph-2-1" x="14.284766" y="15.929688"/>
<use xlink:href="#glyph-2-1" x="23.089063" y="15.929688"/>
<use xlink:href="#glyph-2-2" x="31.893359" y="15.929688"/>
<use xlink:href="#glyph-2-3" x="35.560742" y="15.929688"/>
<use xlink:href="#glyph-2-4" x="42.901953" y="15.929688"/>
<use xlink:href="#glyph-2-5" x="50.243164" y="15.929688"/>
<use xlink:href="#glyph-2-6" x="53.175781" y="15.929688"/>
<use xlink:href="#glyph-2-5" x="56.843164" y="15.929688"/>
<use xlink:href="#glyph-2-7" x="59.775781" y="15.929688"/>
<use xlink:href="#glyph-2-8" x="67.116992" y="15.929688"/>
<use xlink:href="#glyph-2-2" x="74.458203" y="15.929688"/>
<use xlink:href="#glyph-2-9" x="78.125586" y="15.929688"/>
<use xlink:href="#glyph-2-10" x="85.466797" y="15.929688"/>
<use xlink:href="#glyph-2-11" x="89.13418" y="15.929688"/>
</g>
</svg>
